{
.appVersion = "939";
copyright = "Copyright (c) 2015 by Tamirp.com. All rights reserved.";
customParameters = (
{
name = description;
value = "Copyright (c) 2013 by . All rights reserved.";
},
{
name = vendorID;
value = "TMR ";
},
{
name = panose;
value = (
2,
0,
0,
0,
0,
0,
0,
0,
0,
0
);
},
{
name = unicodeRanges;
value = (
11
);
},
{
name = codePageRanges;
value = (
1255
);
},
{
name = glyphOrder;
value = (
.notdef,
NULL,
uni000D,
space,
exclam,
quotedbl,
numbersign,
dollar,
percent,
ampersand,
quotesingle,
parenleft,
parenright,
asterisk,
plus,
comma,
hyphen,
period,
slash,
colon,
semicolon,
less,
equal,
greater,
question,
at,
bracketleft,
backslash,
bracketright,
asciicircum,
underscore,
grave,
a,
b,
c,
d,
e,
f,
g,
h,
i,
j,
k,
l,
m,
n,
o,
p,
q,
r,
s,
t,
u,
v,
w,
x,
y,
z,
braceleft,
bar,
braceright,
asciitilde,
exclamdown,
cent,
sterling,
currency,
yen,
brokenbar,
section,
dieresis,
copyright,
ordfeminine,
guillemotleft,
logicalnot,
registered,
degree,
plusminus,
twosuperior,
threesuperior,
acute,
paragraph,
cedilla,
onesuperior,
ordmasculine,
guillemotright,
onequarter,
onehalf,
threequarters,
questiondown,
multiply,
divide,
florin,
macron,
endash,
quoteleft,
quoteright,
quotesinglbase,
quotedblleft,
quotedblright,
quotedblbase,
dagger,
daggerdbl,
bullet,
ellipsis,
perthousand,
guilsinglleft,
guilsinglright,
trademark,
periodcentered,
lozenge,
g110,
g111,
glyph95,
glyph96,
glyph93,
glyph94,
ch270,
ch271,
ch272,
ch273,
ch274,
ch275,
ch276,
ch277,
glyph70,
glyph71,
glyph64,
glyph65,
glyph52,
glyph53,
ch278,
ch279,
ch280,
ch291,
ch282,
ch287,
ch290,
ch289,
ch288,
ch297,
ch292,
ch295,
ch296,
ch283,
ch298,
ch281,
glyph87,
glyph88,
ch302,
glyph89,
glyph91,
glyph92,
ch286,
ch301,
ch284,
ch309,
glyph72,
glyph73,
glyph146,
glyph147,
ch308,
ch293,
ch310,
ch299,
ch314,
ch305,
ch294,
ch325,
ch320,
ch323,
ch318,
ch321,
ch324,
ch331,
ch304,
ch285,
ch316,
ch311,
ch330,
ch315,
ch334,
ch317,
ch332,
ch319,
glyph4,
glyph5,
hyphenminus,
delete,
uni00A0,
sfthyphen,
micro,
sheva,

glyphs = (
{
glyphname = .notdef;
lastChange = "2017-07-29 14:52:11 +0000";
layers = (
{
layerId = "39211C88-9C10-4AFB-8159-811865CCF3A1";
paths = (
{
closed = 1;
nodes = (
"142 1759 LINE",
"710 1759 LINE",
"710 320 LINE",
"142 320 LINE"
);
},
{
closed = 1;
nodes = (
"782 28 LINE",
"782 2031 LINE",
"70 2031 LINE",
"70 28 LINE"
);
}
);
width = 852;
}
);
note = .notdef;
},
{
glyphname = exclam;
lastChange = "2017-07-29 14:52:11 +0000";
layers = (
{
layerId = "39211C88-9C10-4AFB-8159-811865CCF3A1";
paths = (
{
closed = 1;
nodes = (
"341 1416 LINE SMOOTH",
"341 1480 OFFCURVE",
"321 1498 OFFCURVE",
"256 1501 CURVE",
"136 1501 LINE SMOOTH",
"107 1500 OFFCURVE",
"88 1495 OFFCURVE",
"77 1483 CURVE",
"65 1471 OFFCURVE",
"60 1452 OFFCURVE",
"60 1421 CURVE SMOOTH",
"53 1096 OFFCURVE",
"61 777 OFFCURVE",
"102 449 CURVE SMOOTH",
"109 396 OFFCURVE",
"127 379 OFFCURVE",
"182 376 CURVE",
"217 376 LINE SMOOTH",
"248 377 OFFCURVE",
"268 382 OFFCURVE",
"281 394 CURVE",
"294 405 OFFCURVE",
"301 423 OFFCURVE",
"305 454 CURVE",
"309 509 OFFCURVE",
"314 563 OFFCURVE",
"319 618 CURVE SMOOTH",
"324 673 OFFCURVE",
"329 728 OFFCURVE",
"333 783 CURVE SMOOTH",
"341 893 OFFCURVE",
"346 1002 OFFCURVE",
"341 1113 CURVE",
"341 1148 LINE"
);
},
{
closed = 1;
nodes = (
"61 124 OFFCURVE",
"61 111 OFFCURVE",
"61 98 CURVE",
"60 85 OFFCURVE",
"60 71 OFFCURVE",
"61 58 CURVE SMOOTH",
"64 18 OFFCURVE",
"80 -3 OFFCURVE",
"120 -6 CURVE",
"175 -8 OFFCURVE",
"229 -8 OFFCURVE",
"283 -6 CURVE",
"322 -3 OFFCURVE",
"338 15 OFFCURVE",
"341 54 CURVE SMOOTH",
"344 107 OFFCURVE",
"344 160 OFFCURVE",
"341 213 CURVE SMOOTH",
"338 254 OFFCURVE",
"321 273 OFFCURVE",
"280 276 CURVE SMOOTH",
"227 281 OFFCURVE",
"173 281 OFFCURVE",
"120 276 CURVE SMOOTH",
"83 273 OFFCURVE",
"64 253 OFFCURVE",
"61 214 CURVE SMOOTH",
"60 201 OFFCURVE",
"60 189 OFFCURVE",
"61 176 CURVE",
"61 163 OFFCURVE",
"61 150 OFFCURVE",
"61 137 CURVE SMOOTH"
);
}
);
width = 412;
}
);
note = exclam;
unicode = 0021;
},
{
glyphname = quotedbl;
lastChange = "2017-07-29 14:52:11 +0000";
layers = (
{
layerId = "39211C88-9C10-4AFB-8159-811865CCF3A1";
paths = (
{
closed = 1;
nodes = (
"261 1580 LINE",
"35 1580 LINE",
"35 1391 LINE",
"78 1201 LINE",
"225 1201 LINE",
"258 1391 LINE"
);
},
{
closed = 1;
nodes = (
"566 1580 LINE",
"340 1580 LINE",
"340 1391 LINE",
"374 1201 LINE",
"520 1201 LINE",
"563 1391 LINE"
);
}
);
width = 601;
}
);
note = quotedbl;
unicode = 0022;
},
{
glyphname = numbersign;
lastChange = "2017-07-29 14:52:11 +0000";
layers = (
{
layerId = "39211C88-9C10-4AFB-8159-811865CCF3A1";
paths = (
{
closed = 1;
nodes = (
"451 401 LINE",
"632 401 LINE",
"546 -25 LINE",
"767 -25 LINE",
"854 401 LINE",
"1162 401 LINE",
"1162 602 LINE",
"893 605 LINE",
"940 897 LINE",
"1162 897 LINE",
"1162 1105 LINE",
"967 1105 LINE",
"1054 1491 LINE",
"845 1491 LINE",
"758 1105 LINE",
"566 1105 LINE",
"653 1491 LINE",
"439 1491 LINE",
"352 1105 LINE",
"70 1105 LINE",
"70 897 LINE",
"315 897 LINE",
"259 602 LINE",
"70 602 LINE",
"70 401 LINE",
"239 401 LINE",
"152 -25 LINE",
"364 -25 LINE"
);
},
{
closed = 1;
nodes = (
"725 897 LINE",
"667 602 LINE",
"476 602 LINE",
"530 897 LINE"
);
}
);
width = 1232;
}
);
note = numbersign;
unicode = 0023;
},
{
glyphname = dollar;
lastChange = "2017-07-29 14:52:11 +0000";
layers = (
{
layerId = "39211C88-9C10-4AFB-8159-811865CCF3A1";
paths = (
{
closed = 1;
nodes = (
"616 -29 LINE",
"868 -17 OFFCURVE",
"1043 168 OFFCURVE",
"1043 417 CURVE SMOOTH",
"1043 530 OFFCURVE",
"1004 630 OFFCURVE",
"933 701 CURVE SMOOTH",
"862 772 OFFCURVE",
"797 799 OFFCURVE",
"616 844 CURVE",
"616 1348 LINE",
"733 1344 OFFCURVE",
"800 1267 OFFCURVE",
"821 1126 CURVE",
"1010 1126 LINE",
"974 1391 OFFCURVE",
"825 1495 OFFCURVE",
"616 1515 CURVE",
"616 1685 LINE",
"510 1685 LINE",
"510 1515 LINE",
"271 1491 OFFCURVE",
"104 1362 OFFCURVE",
"104 1106 CURVE SMOOTH",
"104 1034 OFFCURVE",
"120 970 OFFCURVE",
"151 913 CURVE SMOOTH",
"213 800 OFFCURVE",
"362 726 OFFCURVE",
"510 682 CURVE",
"510 127 LINE",
"369 130 OFFCURVE",
"282 245 OFFCURVE",
"254 438 CURVE",
"70 438 LINE",
"79 322 OFFCURVE",
"104 232 OFFCURVE",
"145 167 CURVE SMOOTH",
"227 38 OFFCURVE",
"330 -11 OFFCURVE",
"510 -34 CURVE",
"510 -211 LINE",
"616 -211 LINE"
);
},
{
closed = 1;
nodes = (
"346 916 OFFCURVE",
"284 997 OFFCURVE",
"284 1120 CURVE SMOOTH",
"284 1244 OFFCURVE",
"370 1349 OFFCURVE",
"510 1350 CURVE",
"510 867 LINE"
);
},
{
closed = 1;
nodes = (
"809 610 OFFCURVE",
"858 536 OFFCURVE",
"858 405 CURVE SMOOTH",
"858 252 OFFCURVE",
"756 135 OFFCURVE",
"616 130 CURVE",
"616 657 LINE"
);
}
);
width = 1113;
}
);
note = dollar;
unicode = 0024;
},
{
glyphname = percent;
lastChange = "2017-07-29 14:52:11 +0000";
layers = (
{
layerId = "39211C88-9C10-4AFB-8159-811865CCF3A1";
paths = (
{
closed = 1;
nodes = (
"70 837 OFFCURVE",
"201 715 OFFCURVE",
"376 715 CURVE SMOOTH",
"553 715 OFFCURVE",
"689 844 OFFCURVE",
"689 1075 CURVE SMOOTH",
"689 1311 OFFCURVE",
"557 1435 OFFCURVE",
"374 1435 CURVE SMOOTH",
"177 1435 OFFCURVE",
"70 1280 OFFCURVE",
"70 1085 CURVE SMOOTH"
);
},
{
closed = 1;
nodes = (
"467 1320 OFFCURVE",
"534 1257 OFFCURVE",
"534 1081 CURVE SMOOTH",
"534 890 OFFCURVE",
"468 830 OFFCURVE",
"379 830 CURVE SMOOTH",
"292 830 OFFCURVE",
"225 893 OFFCURVE",
"225 1068 CURVE SMOOTH",
"225 1260 OFFCURVE",
"291 1320 OFFCURVE",
"379 1320 CURVE SMOOTH"
);
},
{
closed = 1;
nodes = (
"1341 1435 LINE",
"1135 1435 LINE",
"331 0 LINE",
"546 0 LINE"
);
},
{
closed = 1;
nodes = (
"1007 123 OFFCURVE",
"1137 0 OFFCURVE",
"1313 0 CURVE SMOOTH",
"1490 0 OFFCURVE",
"1627 130 OFFCURVE",
"1627 359 CURVE SMOOTH",
"1627 596 OFFCURVE",
"1493 720 OFFCURVE",
"1312 720 CURVE SMOOTH",
"1113 720 OFFCURVE",
"1007 565 OFFCURVE",
"1007 370 CURVE SMOOTH"
);
},
{
closed = 1;
nodes = (
"1405 605 OFFCURVE",
"1472 542 OFFCURVE",
"1472 366 CURVE SMOOTH",
"1472 175 OFFCURVE",
"1407 115 OFFCURVE",
"1316 115 CURVE SMOOTH",
"1229 115 OFFCURVE",
"1162 180 OFFCURVE",
"1162 353 CURVE SMOOTH",
"1162 545 OFFCURVE",
"1228 605 OFFCURVE",
"1317 605 CURVE SMOOTH"
);
}
);
width = 1697;
}
);
note = percent;
unicode = 0025;
},
{
glyphname = ampersand;
lastChange = "2017-07-29 14:52:11 +0000";
layers = (
{
layerId = "39211C88-9C10-4AFB-8159-811865CCF3A1";
paths = (
{
closed = 1;
nodes = (
"1032 82 OFFCURVE",
"1117 23 OFFCURVE",
"1208 -3 CURVE",
"1276 82 LINE",
"1216 173 OFFCURVE",
"1148 257 OFFCURVE",
"1072 334 CURVE",
"1127 417 OFFCURVE",
"1164 522 OFFCURVE",
"1184 650 CURVE",
"1049 680 LINE",
"1010 609 OFFCURVE",
"975 545 OFFCURVE",
"945 486 CURVE",
"695 802 LINE",
"871 913 OFFCURVE",
"959 1039 OFFCURVE",
"959 1178 CURVE SMOOTH",
"959 1350 OFFCURVE",
"818 1491 OFFCURVE",
"618 1491 CURVE SMOOTH",
"409 1491 OFFCURVE",
"254 1340 OFFCURVE",
"254 1164 CURVE SMOOTH",
"254 1076 OFFCURVE",
"287 994 OFFCURVE",
"419 842 CURVE",
"187 731 OFFCURVE",
"70 585 OFFCURVE",
"70 404 CURVE SMOOTH",
"70 200 OFFCURVE",
"234 -25 OFFCURVE",
"534 -25 CURVE SMOOTH",
"697 -25 OFFCURVE",
"836 41 OFFCURVE",
"955 173 CURVE"
);
},
{
closed = 1;
nodes = (
"462 1086 OFFCURVE",
"439 1136 OFFCURVE",
"439 1181 CURVE SMOOTH",
"439 1272 OFFCURVE",
"512 1324 OFFCURVE",
"609 1324 CURVE SMOOTH",
"704 1324 OFFCURVE",
"775 1273 OFFCURVE",
"775 1173 CURVE SMOOTH",
"775 1089 OFFCURVE",
"745 1029 OFFCURVE",
"589 937 CURVE",
"509 1030 LINE SMOOTH"
);
},
{
closed = 1;
nodes = (
"773 208 OFFCURVE",
"644 149 OFFCURVE",
"536 149 CURVE SMOOTH",
"363 149 OFFCURVE",
"264 296 OFFCURVE",
"264 415 CURVE SMOOTH",
"264 512 OFFCURVE",
"313 614 OFFCURVE",
"525 705 CURVE",
"842 315 LINE"
);
}
);
width = 1346;
}
);
note = ampersand;
unicode = 0026;
},
{
glyphname = quotesingle;
lastChange = "2017-07-29 14:52:11 +0000";
layers = (
{
layerId = "39211C88-9C10-4AFB-8159-811865CCF3A1";
paths = (
{
closed = 1;
nodes = (
"322 1501 OFFCURVE",
"327 1517 OFFCURVE",
"328 1531 CURVE",
"331 1555 OFFCURVE",
"321 1580 OFFCURVE",
"276 1580 CURVE SMOOTH",
"71 1580 LINE",
"-29 1234 LINE",
"-34 1214 OFFCURVE",
"-22 1201 OFFCURVE",
"-9 1201 CURVE SMOOTH",
"153 1201 LINE SMOOTH",
"186 1201 OFFCURVE",
"203 1229 OFFCURVE",
"214 1254 CURVE SMOOTH",
"313 1483 LINE"
);
}
);
width = 294;
}
);
note = quotesingle;
unicode = 0027;
},
{
glyphname = parenleft;
lastChange = "2017-07-29 14:52:11 +0000";
layers = (
{
layerId = "39211C88-9C10-4AFB-8159-811865CCF3A1";
paths = (
{
closed = 1;
nodes = (
"451 -44 OFFCURVE",
"329 272 OFFCURVE",
"329 696 CURVE SMOOTH",
"329 1119 OFFCURVE",
"438 1416 OFFCURVE",
"599 1603 CURVE",
"300 1603 LINE",
"147 1347 OFFCURVE",
"70 1046 OFFCURVE",
"70 699 CURVE SMOOTH",
"70 352 OFFCURVE",
"145 51 OFFCURVE",
"294 -205 CURVE",
"602 -205 LINE"
);
}
);
width = 672;
}
);
note = parenleft;
unicode = 0028;
},
{
glyphname = parenright;
lastChange = "2017-07-29 14:52:11 +0000";
layers = (
{
layerId = "39211C88-9C10-4AFB-8159-811865CCF3A1";
paths = (
{
closed = 1;
nodes = (
"521 51 OFFCURVE",
"595 352 OFFCURVE",
"595 699 CURVE SMOOTH",
"595 1046 OFFCURVE",
"519 1347 OFFCURVE",
"368 1603 CURVE",
"73 1603 LINE",
"232 1416 OFFCURVE",
"339 1119 OFFCURVE",
"339 696 CURVE SMOOTH",
"339 272 OFFCURVE",
"219 -44 OFFCURVE",
"70 -205 CURVE",
"374 -205 LINE"
);
}
);
width = 665;
}
);
note = parenright;
unicode = 0029;
},
{
glyphname = asterisk;
lastChange = "2017-07-29 14:52:11 +0000";
layers = (
{
layerId = "39211C88-9C10-4AFB-8159-811865CCF3A1";
paths = (
{
closed = 1;
nodes = (
"718 1258 LINE SMOOTH",
"733 1266 OFFCURVE",
"737 1284 OFFCURVE",
"729 1299 CURVE SMOOTH",
"646 1443 LINE SMOOTH",
"638 1458 OFFCURVE",
"620 1462 OFFCURVE",
"605 1454 CURVE SMOOTH",
"513 1401 LINE",
"513 1507 LINE SMOOTH",
"513 1524 OFFCURVE",
"500 1537 OFFCURVE",
"483 1537 CURVE SMOOTH",
"317 1537 LINE SMOOTH",
"300 1537 OFFCURVE",
"287 1524 OFFCURVE",
"287 1507 CURVE SMOOTH",
"287 1401 LINE",
"195 1454 LINE SMOOTH",
"180 1462 OFFCURVE",
"162 1458 OFFCURVE",
"154 1443 CURVE SMOOTH",
"71 1299 LINE SMOOTH",
"63 1284 OFFCURVE",
"67 1266 OFFCURVE",
"82 1258 CURVE SMOOTH",
"174 1205 LINE",
"82 1152 LINE SMOOTH",
"67 1144 OFFCURVE",
"63 1126 OFFCURVE",
"71 1111 CURVE SMOOTH",
"154 967 LINE SMOOTH",
"162 952 OFFCURVE",
"180 948 OFFCURVE",
"195 956 CURVE SMOOTH",
"287 1009 LINE",
"287 903 LINE SMOOTH",
"287 886 OFFCURVE",
"300 873 OFFCURVE",
"317 873 CURVE SMOOTH",
"483 873 LINE SMOOTH",
"500 873 OFFCURVE",
"513 886 OFFCURVE",
"513 903 CURVE SMOOTH",
"513 1009 LINE",
"605 956 LINE SMOOTH",
"620 948 OFFCURVE",
"638 952 OFFCURVE",
"646 967 CURVE SMOOTH",
"729 1111 LINE SMOOTH",
"737 1126 OFFCURVE",
"733 1144 OFFCURVE",
"718 1152 CURVE SMOOTH",
"626 1205 LINE"
);
},
{
closed = 1;
nodes = (
"306 1260 OFFCURVE",
"348 1303 OFFCURVE",
"401 1303 CURVE SMOOTH",
"454 1303 OFFCURVE",
"497 1260 OFFCURVE",
"497 1207 CURVE SMOOTH",
"497 1154 OFFCURVE",
"454 1112 OFFCURVE",
"401 1112 CURVE SMOOTH",
"348 1112 OFFCURVE",
"306 1154 OFFCURVE",
"306 1207 CURVE SMOOTH"
);
}
);
width = 801;
}
);
note = asterisk;
unicode = 002A;
},
{
glyphname = plus;
lastChange = "2017-07-29 14:52:11 +0000";
layers = (
{
layerId = "39211C88-9C10-4AFB-8159-811865CCF3A1";
paths = (
{
closed = 1;
nodes = (
"632 800 OFFCURVE",
"654 811 OFFCURVE",
"654 852 CURVE SMOOTH",
"654 1008 LINE SMOOTH",
"654 1052 OFFCURVE",
"634 1065 OFFCURVE",
"595 1065 CURVE SMOOTH",
"109 1065 LINE SMOOTH",
"70 1065 OFFCURVE",
"50 1052 OFFCURVE",
"50 1008 CURVE SMOOTH",
"50 852 LINE SMOOTH",
"50 811 OFFCURVE",
"72 800 OFFCURVE",
"109 800 CURVE SMOOTH",
"595 800 LINE SMOOTH"
);
},
{
closed = 1;
nodes = (
"480 1209 OFFCURVE",
"469 1231 OFFCURVE",
"428 1231 CURVE SMOOTH",
"272 1231 LINE SMOOTH",
"228 1231 OFFCURVE",
"215 1211 OFFCURVE",
"215 1172 CURVE SMOOTH",
"215 686 LINE SMOOTH",
"215 647 OFFCURVE",
"228 627 OFFCURVE",
"272 627 CURVE SMOOTH",
"428 627 LINE SMOOTH",
"469 627 OFFCURVE",
"480 649 OFFCURVE",
"480 686 CURVE SMOOTH",
"480 1172 LINE SMOOTH"
);
}
);
width = 704;
}
);
note = plus;
unicode = 002B;
},
{
glyphname = comma;
lastChange = "2017-07-29 14:52:11 +0000";
layers = (
{
layerId = "39211C88-9C10-4AFB-8159-811865CCF3A1";
paths = (
{
closed = 1;
nodes = (
"15 60 OFFCURVE",
"10 44 OFFCURVE",
"9 30 CURVE",
"6 6 OFFCURVE",
"16 -18 OFFCURVE",
"61 -18 CURVE SMOOTH",
"226 -18 LINE",
"366 328 LINE",
"371 348 OFFCURVE",
"359 361 OFFCURVE",
"346 361 CURVE SMOOTH",
"184 361 LINE SMOOTH",
"151 361 OFFCURVE",
"134 333 OFFCURVE",
"123 308 CURVE SMOOTH",
"24 79 LINE SMOOTH"
);
}
);
width = 404;
}
);
note = comma;
unicode = 002C;
},
{
glyphname = hyphen;
lastChange = "2017-07-29 14:52:11 +0000";
layers = (
{
layerId = "39211C88-9C10-4AFB-8159-811865CCF3A1";
paths = (
{
closed = 1;
nodes = (
"632 800 OFFCURVE",
"654 811 OFFCURVE",
"654 852 CURVE SMOOTH",
"654 1008 LINE SMOOTH",
"654 1052 OFFCURVE",
"634 1065 OFFCURVE",
"595 1065 CURVE SMOOTH",
"109 1065 LINE SMOOTH",
"70 1065 OFFCURVE",
"50 1052 OFFCURVE",
"50 1008 CURVE SMOOTH",
"50 852 LINE SMOOTH",
"50 811 OFFCURVE",
"72 800 OFFCURVE",
"109 800 CURVE SMOOTH",
"595 800 LINE SMOOTH"
);
}
);
width = 704;
}
);
note = hyphen;
unicode = 002D;
},
{
glyphname = period;
lastChange = "2017-07-29 14:52:11 +0000";
layers = (
{
layerId = "39211C88-9C10-4AFB-8159-811865CCF3A1";
paths = (
{
closed = 1;
nodes = (
"354 0 OFFCURVE",
"367 27 OFFCURVE",
"367 88 CURVE SMOOTH",
"367 199 LINE SMOOTH",
"367 260 OFFCURVE",
"354 287 OFFCURVE",
"294 287 CURVE SMOOTH",
"149 287 LINE SMOOTH",
"89 287 OFFCURVE",
"76 260 OFFCURVE",
"76 199 CURVE SMOOTH",
"76 88 LINE SMOOTH",
"76 27 OFFCURVE",
"89 0 OFFCURVE",
"149 0 CURVE SMOOTH",
"294 0 LINE SMOOTH"
);
}
);
width = 402;
}
);
note = period;
unicode = 002E;
},
{
glyphname = slash;
lastChange = "2017-07-29 14:52:11 +0000";
layers = (
{
layerId = "39211C88-9C10-4AFB-8159-811865CCF3A1";
paths = (
{
closed = 1;
nodes = (
"760 1544 OFFCURVE",
"754 1566 OFFCURVE",
"711 1578 CURVE SMOOTH",
"593 1614 LINE SMOOTH",
"552 1625 OFFCURVE",
"537 1606 OFFCURVE",
"526 1571 CURVE SMOOTH",
"30 -121 LINE SMOOTH",
"17 -170 OFFCURVE",
"32 -197 OFFCURVE",
"76 -209 CURVE SMOOTH",
"172 -237 LINE SMOOTH",
"217 -249 OFFCURVE",
"241 -233 OFFCURVE",
"253 -190 CURVE SMOOTH",
"749 1505 LINE SMOOTH"
);
}
);
width = 779;
}
);
note = slash;
unicode = 002F;
},
{
glyphname = colon;
lastChange = "2017-07-29 14:52:11 +0000";
layers = (
{
layerId = "39211C88-9C10-4AFB-8159-811865CCF3A1";
paths = (
{
closed = 1;
nodes = (
"102 550 OFFCURVE",
"91 539 OFFCURVE",
"91 524 CURVE SMOOTH",
"91 226 LINE SMOOTH",
"91 211 OFFCURVE",
"102 200 OFFCURVE",
"117 200 CURVE SMOOTH",
"365 200 LINE SMOOTH",
"380 200 OFFCURVE",
"391 211 OFFCURVE",
"391 226 CURVE SMOOTH",
"391 524 LINE SMOOTH",
"391 539 OFFCURVE",
"380 550 OFFCURVE",
"365 550 CURVE SMOOTH",
"117 550 LINE SMOOTH"
);
},
{
closed = 1;
nodes = (
"102 1298 OFFCURVE",
"91 1287 OFFCURVE",
"91 1272 CURVE SMOOTH",
"91 974 LINE SMOOTH",
"91 959 OFFCURVE",
"102 948 OFFCURVE",
"117 948 CURVE SMOOTH",
"365 948 LINE SMOOTH",
"380 948 OFFCURVE",
"391 959 OFFCURVE",
"391 974 CURVE SMOOTH",
"391 1272 LINE SMOOTH",
"391 1287 OFFCURVE",
"380 1298 OFFCURVE",
"365 1298 CURVE SMOOTH",
"117 1298 LINE SMOOTH"
);
}
);
width = 522;
}
);
note = colon;
unicode = 003A;
},
{
glyphname = semicolon;
lastChange = "2017-07-29 14:52:11 +0000";
layers = (
{
layerId = "39211C88-9C10-4AFB-8159-811865CCF3A1";
paths = (
{
closed = 1;
nodes = (
"464 889 OFFCURVE",
"477 916 OFFCURVE",
"477 977 CURVE SMOOTH",
"477 1088 LINE SMOOTH",
"477 1149 OFFCURVE",
"464 1176 OFFCURVE",
"404 1176 CURVE SMOOTH",
"259 1176 LINE SMOOTH",
"199 1176 OFFCURVE",
"186 1149 OFFCURVE",
"186 1088 CURVE SMOOTH",
"186 977 LINE SMOOTH",
"186 916 OFFCURVE",
"199 889 OFFCURVE",
"259 889 CURVE SMOOTH",
"404 889 LINE SMOOTH"
);
},
{
closed = 1;
nodes = (
"509 287 LINE",
"190 287 LINE",
"96 98 LINE",
"70 -92 LINE",
"265 -92 LINE",
"410 98 LINE"
);
}
);
width = 680;
}
);
note = semicolon;
unicode = 003B;
},
{
glyphname = less;
lastChange = "2017-07-29 14:52:11 +0000";
layers = (
{
layerId = "39211C88-9C10-4AFB-8159-811865CCF3A1";
paths = (
{
closed = 1;
nodes = (
"625 904 OFFCURVE",
"645 925 OFFCURVE",
"645 960 CURVE SMOOTH",
"645 1107 LINE SMOOTH",
"645 1142 OFFCURVE",
"625 1163 OFFCURVE",
"584 1163 CURVE SMOOTH",
"90 1163 LINE SMOOTH",
"51 1163 OFFCURVE",
"31 1132 OFFCURVE",
"31 1100 CURVE SMOOTH",
"31 966 LINE SMOOTH",
"31 927 OFFCURVE",
"47 904 OFFCURVE",
"92 904 CURVE SMOOTH",
"584 904 LINE SMOOTH"
);
}
);
width = 713;
}
);
note = less;
unicode = 003C;
},
{
glyphname = equal;
lastChange = "2017-07-29 14:52:11 +0000";
layers = (
{
layerId = "39211C88-9C10-4AFB-8159-811865CCF3A1";
paths = (
{
closed = 1;
nodes = (
"307 1338 OFFCURVE",
"299 1338 OFFCURVE",
"290 1338 CURVE SMOOTH",
"281 1338 OFFCURVE",
"271 1338 OFFCURVE",
"262 1337 CURVE SMOOTH",
"217 1333 OFFCURVE",
"202 1319 OFFCURVE",
"201 1272 CURVE SMOOTH",
"200 1245 OFFCURVE",
"199 1226 OFFCURVE",
"199 1206 CURVE SMOOTH",
"199 1196 OFFCURVE",
"199 1186 OFFCURVE",
"199 1175 CURVE SMOOTH",
"199 1164 OFFCURVE",
"199 1152 OFFCURVE",
"200 1139 CURVE SMOOTH",
"203 1092 OFFCURVE",
"218 1075 OFFCURVE",
"266 1074 CURVE",
"442 1078 OFFCURVE",
"551 1078 OFFCURVE",
"627 1078 CURVE SMOOTH",
"703 1078 OFFCURVE",
"748 1077 OFFCURVE",
"793 1075 CURVE SMOOTH",
"837 1073 OFFCURVE",
"883 1072 OFFCURVE",
"964 1072 CURVE SMOOTH",
"971 1072 OFFCURVE",
"979 1072 OFFCURVE",
"987 1072 CURVE SMOOTH",
"995 1072 OFFCURVE",
"1003 1072 OFFCURVE",
"1011 1073 CURVE",
"1050 1076 OFFCURVE",
"1059 1085 OFFCURVE",
"1062 1125 CURVE SMOOTH",
"1063 1149 OFFCURVE",
"1064 1175 OFFCURVE",
"1064 1203 CURVE SMOOTH",
"1064 1230 OFFCURVE",
"1063 1256 OFFCURVE",
"1062 1280 CURVE SMOOTH",
"1059 1323 OFFCURVE",
"1049 1334 OFFCURVE",
"1008 1337 CURVE",
"1001 1338 OFFCURVE",
"993 1339 OFFCURVE",
"985 1339 CURVE",
"977 1338 OFFCURVE",
"969 1338 OFFCURVE",
"961 1338 CURVE SMOOTH",
"316 1338 LINE SMOOTH"
);
},
{
closed = 1;
nodes = (
"307 898 OFFCURVE",
"299 898 OFFCURVE",
"290 898 CURVE SMOOTH",
"281 898 OFFCURVE",
"271 898 OFFCURVE",
"262 897 CURVE SMOOTH",
"217 893 OFFCURVE",
"202 879 OFFCURVE",
"201 832 CURVE SMOOTH",
"200 805 OFFCURVE",
"199 786 OFFCURVE",
"199 766 CURVE SMOOTH",
"199 756 OFFCURVE",
"199 746 OFFCURVE",
"199 735 CURVE SMOOTH",
"199 724 OFFCURVE",
"199 712 OFFCURVE",
"200 699 CURVE SMOOTH",
"203 652 OFFCURVE",
"218 635 OFFCURVE",
"266 634 CURVE",
"442 638 OFFCURVE",
"551 638 OFFCURVE",
"627 638 CURVE SMOOTH",
"703 638 OFFCURVE",
"748 637 OFFCURVE",
"793 635 CURVE SMOOTH",
"837 633 OFFCURVE",
"883 632 OFFCURVE",
"964 632 CURVE SMOOTH",
"971 632 OFFCURVE",
"979 632 OFFCURVE",
"987 632 CURVE SMOOTH",
"995 632 OFFCURVE",
"1003 632 OFFCURVE",
"1011 633 CURVE",
"1050 636 OFFCURVE",
"1059 645 OFFCURVE",
"1062 685 CURVE SMOOTH",
"1063 709 OFFCURVE",
"1064 735 OFFCURVE",
"1064 763 CURVE SMOOTH",
"1064 790 OFFCURVE",
"1063 816 OFFCURVE",
"1062 840 CURVE SMOOTH",
"1059 883 OFFCURVE",
"1049 894 OFFCURVE",
"1008 897 CURVE",
"1001 898 OFFCURVE",
"993 899 OFFCURVE",
"985 899 CURVE",
"977 898 OFFCURVE",
"969 898 OFFCURVE",
"961 898 CURVE SMOOTH",
"316 898 LINE SMOOTH"
);
}
);
width = 1176;
}
);
note = equal;
unicode = 003D;
},
{
glyphname = greater;
lastChange = "2017-07-29 14:52:11 +0000";
layers = (
{
layerId = "39211C88-9C10-4AFB-8159-811865CCF3A1";
paths = (
{
closed = 1;
nodes = (
"244 1578 OFFCURVE",
"216 1583 OFFCURVE",
"181 1551 CURVE SMOOTH",
"84 1462 LINE SMOOTH",
"51 1432 OFFCURVE",
"50 1399 OFFCURVE",
"82 1363 CURVE SMOOTH",
"1533 -196 LINE SMOOTH",
"1558 -223 OFFCURVE",
"1581 -231 OFFCURVE",
"1612 -204 CURVE SMOOTH",
"1726 -98 LINE SMOOTH",
"1758 -67 OFFCURVE",
"1755 -44 OFFCURVE",
"1728 -15 CURVE SMOOTH",
"275 1546 LINE SMOOTH"
);
}
);
width = 1807;
}
);
note = greater;
unicode = 003E;
},
{
glyphname = question;
lastChange = "2017-07-29 14:52:11 +0000";
layers = (
{
layerId = "39211C88-9C10-4AFB-8159-811865CCF3A1";
paths = (
{
closed = 1;
nodes = (
"394 1192 OFFCURVE",
"416 1215 OFFCURVE",
"447 1215 CURVE SMOOTH",
"478 1215 OFFCURVE",
"501 1192 OFFCURVE",
"501 1161 CURVE SMOOTH",
"501 1104 LINE SMOOTH",
"501 1045 OFFCURVE",
"485 984 OFFCURVE",
"460 928 CURVE SMOOTH",
"435 871 OFFCURVE",
"399 819 OFFCURVE",
"360 779 CURVE SMOOTH",
"320 736 OFFCURVE",
"281 679 OFFCURVE",
"252 614 CURVE SMOOTH",
"223 549 OFFCURVE",
"204 476 OFFCURVE",
"204 405 CURVE SMOOTH",
"204 347 LINE",
"453 347 LINE",
"453 405 LINE SMOOTH",
"453 446 OFFCURVE",
"465 485 OFFCURVE",
"488 529 CURVE SMOOTH",
"511 572 OFFCURVE",
"543 619 OFFCURVE",
"584 678 CURVE SMOOTH",
"616 725 OFFCURVE",
"661 791 OFFCURVE",
"697 867 CURVE SMOOTH",
"733 942 OFFCURVE",
"762 1025 OFFCURVE",
"762 1104 CURVE SMOOTH",
"762 1299 LINE SMOOTH",
"762 1336 OFFCURVE",
"736 1380 OFFCURVE",
"698 1415 CURVE SMOOTH",
"660 1450 OFFCURVE",
"612 1474 OFFCURVE",
"568 1474 CURVE SMOOTH",
"359 1474 LINE SMOOTH",
"311 1474 OFFCURVE",
"264 1450 OFFCURVE",
"229 1415 CURVE SMOOTH",
"193 1380 OFFCURVE",
"170 1336 OFFCURVE",
"170 1299 CURVE SMOOTH",
"170 1070 LINE",
"394 1070 LINE",
"394 1161 LINE SMOOTH"
);
},
{
closed = 1;
nodes = (
"214 240 OFFCURVE",
"203 229 OFFCURVE",
"203 214 CURVE SMOOTH",
"203 26 LINE SMOOTH",
"203 11 OFFCURVE",
"214 0 OFFCURVE",
"229 0 CURVE SMOOTH",
"427 0 LINE SMOOTH",
"442 0 OFFCURVE",
"453 11 OFFCURVE",
"453 26 CURVE SMOOTH",
"453 214 LINE SMOOTH",
"453 229 OFFCURVE",
"442 240 OFFCURVE",
"427 240 CURVE SMOOTH",
"229 240 LINE SMOOTH"
);
}
);
width = 872;
}
);
note = question;
unicode = 003F;
},
{
glyphname = at;
lastChange = "2017-07-29 14:52:11 +0000";
layers = (
{
layerId = "39211C88-9C10-4AFB-8159-811865CCF3A1";
paths = (
{
closed = 1;
nodes = (
"1049 1094 OFFCURVE",
"932 1129 OFFCURVE",
"817 1129 CURVE SMOOTH",
"618 1129 OFFCURVE",
"457 961 OFFCURVE",
"457 697 CURVE SMOOTH",
"457 453 OFFCURVE",
"560 279 OFFCURVE",
"771 279 CURVE SMOOTH",
"844 279 OFFCURVE",
"912 323 OFFCURVE",
"973 410 CURVE",
"996 305 OFFCURVE",
"1046 239 OFFCURVE",
"1123 214 CURVE SMOOTH",
"1277 163 OFFCURVE",
"1424 216 OFFCURVE",
"1507 320 CURVE",
"1578 421 OFFCURVE",
"1614 556 OFFCURVE",
"1614 727 CURVE SMOOTH",
"1614 1200 OFFCURVE",
"1331 1504 OFFCURVE",
"859 1504 CURVE SMOOTH",
"411 1504 OFFCURVE",
"70 1156 OFFCURVE",
"70 712 CURVE SMOOTH",
"70 248 OFFCURVE",
"404 -81 OFFCURVE",
"809 -81 CURVE SMOOTH",
"928 -81 OFFCURVE",
"1026 -72 OFFCURVE",
"1105 -53 CURVE",
"1105 119 LINE",
"1065 108 OFFCURVE",
"982 102 OFFCURVE",
"856 102 CURVE",
"637 119 OFFCURVE",
"479 205 OFFCURVE",
"380 361 CURVE",
"311 455 OFFCURVE",
"273 569 OFFCURVE",
"266 703 CURVE",
"275 1112 OFFCURVE",
"528 1300 OFFCURVE",
"860 1308 CURVE",
"1040 1305 OFFCURVE",
"1178 1257 OFFCURVE",
"1273 1166 CURVE",
"1383 1037 OFFCURVE",
"1431 889 OFFCURVE",
"1417 722 CURVE",
"1418 576 OFFCURVE",
"1401 481 OFFCURVE",
"1366 437 CURVE SMOOTH",
"1295 348 OFFCURVE",
"1162 373 OFFCURVE",
"1170 441 CURVE",
"1170 1023 LINE"
);
},
{
closed = 1;
nodes = (
"909 511 OFFCURVE",
"857 485 OFFCURVE",
"814 485 CURVE SMOOTH",
"715 485 OFFCURVE",
"665 559 OFFCURVE",
"665 708 CURVE SMOOTH",
"665 862 OFFCURVE",
"720 939 OFFCURVE",
"830 939 CURVE SMOOTH",
"865 939 OFFCURVE",
"912 928 OFFCURVE",
"971 907 CURVE",
"971 564 LINE"
);
}
);
width = 1684;
}
);
note = at;
unicode = 0040;
},
{
glyphname = bracketleft;
lastChange = "2017-07-29 14:52:11 +0000";
layers = (
{
layerId = "39211C88-9C10-4AFB-8159-811865CCF3A1";
paths = (
{
closed = 1;
nodes = (
"467 57 LINE",
"358 57 LINE",
"358 1354 LINE",
"467 1354 LINE",
"467 1654 LINE",
"70 1654 LINE",
"70 -219 LINE",
"467 -219 LINE"
);
}
);
width = 537;
}
);
note = bracketleft;
unicode = 005B;
},
{
glyphname = backslash;
lastChange = "2017-07-29 14:52:11 +0000";
layers = (
{
layerId = "39211C88-9C10-4AFB-8159-811865CCF3A1";
paths = (
{
closed = 1;
nodes = (
"944 -128 OFFCURVE",
"970 -138 OFFCURVE",
"1011 -115 CURVE SMOOTH",
"1126 -50 LINE SMOOTH",
"1165 -29 OFFCURVE",
"1173 3 OFFCURVE",
"1150 46 CURVE SMOOTH",
"273 1576 LINE SMOOTH",
"254 1607 OFFCURVE",
"235 1621 OFFCURVE",
"198 1602 CURVE",
"63 1524 LINE SMOOTH",
"24 1501 OFFCURVE",
"24 1479 OFFCURVE",
"43 1444 CURVE SMOOTH",
"921 -89 LINE SMOOTH"
);
}
);
width = 1194;
}
);
note = backslash;
unicode = 005C;
},
{
glyphname = bracketright;
lastChange = "2017-07-29 14:52:11 +0000";
layers = (
{
layerId = "39211C88-9C10-4AFB-8159-811865CCF3A1";
paths = (
{
closed = 1;
nodes = (
"463 1654 LINE",
"70 1654 LINE",
"70 1351 LINE",
"177 1351 LINE",
"177 87 LINE",
"70 87 LINE",
"70 -219 LINE",
"463 -219 LINE"
);
}
);
width = 533;
}
);
note = bracketright;
unicode = 005D;
},
{
glyphname = asciicircum;
lastChange = "2017-07-29 14:52:11 +0000";
layers = (
{
layerId = "39211C88-9C10-4AFB-8159-811865CCF3A1";
paths = (
{
closed = 1;
nodes = (
"603 690 LINE",
"923 690 LINE",
"568 1491 LINE",
"423 1491 LINE",
"70 690 LINE",
"378 690 LINE",
"492 1011 LINE"
);
}
);
width = 993;
}
);
note = asciicircum;
unicode = 005E;
},
{
glyphname = underscore;
lastChange = "2017-07-29 14:52:11 +0000";
layers = (
{
layerId = "39211C88-9C10-4AFB-8159-811865CCF3A1";
paths = (
{
closed = 1;
nodes = (
"1282 0 OFFCURVE",
"1304 11 OFFCURVE",
"1304 52 CURVE SMOOTH",
"1304 208 LINE SMOOTH",
"1304 252 OFFCURVE",
"1284 265 OFFCURVE",
"1245 265 CURVE SMOOTH",
"79 265 LINE SMOOTH",
"40 265 OFFCURVE",
"20 252 OFFCURVE",
"20 208 CURVE SMOOTH",
"20 52 LINE SMOOTH",
"20 11 OFFCURVE",
"42 0 OFFCURVE",
"79 0 CURVE SMOOTH",
"1245 0 LINE SMOOTH"
);
}
);
width = 1333;
}
);
note = underscore;
unicode = 005F;
},
{
glyphname = grave;
lastChange = "2017-07-29 14:52:11 +0000";
layers = (
{
layerId = "39211C88-9C10-4AFB-8159-811865CCF3A1";
paths = (
{
closed = 1;
nodes = (
"503 1201 LINE",
"478 1391 LINE",
"385 1580 LINE",
"70 1580 LINE",
"168 1391 LINE",
"309 1201 LINE"
);
}
);
width = 573;
}
);
note = grave;
unicode = 0060;
},
{
glyphname = braceleft;
lastChange = "2017-07-29 14:52:11 +0000";
layers = (
{
layerId = "39211C88-9C10-4AFB-8159-811865CCF3A1";
paths = (
{
closed = 1;
nodes = (
"380 1629 OFFCURVE",
"319 1558 OFFCURVE",
"302 1453 CURVE SMOOTH",
"293 1400 OFFCURVE",
"289 1314 OFFCURVE",
"288 1194 CURVE SMOOTH",
"287 1074 OFFCURVE",
"281 991 OFFCURVE",
"270 946 CURVE SMOOTH",
"247 854 OFFCURVE",
"178 802 OFFCURVE",
"70 782 CURVE",
"70 641 LINE",
"178 626 OFFCURVE",
"247 573 OFFCURVE",
"270 482 CURVE SMOOTH",
"281 436 OFFCURVE",
"287 357 OFFCURVE",
"288 246 CURVE SMOOTH",
"289 135 OFFCURVE",
"291 61 OFFCURVE",
"294 26 CURVE SMOOTH",
"307 -87 OFFCURVE",
"342 -150 OFFCURVE",
"393 -190 CURVE SMOOTH",
"444 -231 OFFCURVE",
"500 -248 OFFCURVE",
"620 -248 CURVE SMOOTH",
"679 -248 LINE",
"679 -119 LINE",
"646 -91 LINE",
"501 -91 OFFCURVE",
"484 -60 OFFCURVE",
"488 115 CURVE SMOOTH",
"488 282 OFFCURVE",
"485 387 OFFCURVE",
"478 432 CURVE SMOOTH",
"453 580 OFFCURVE",
"357 664 OFFCURVE",
"281 713 CURVE",
"396 786 OFFCURVE",
"485 877 OFFCURVE",
"485 1164 CURVE SMOOTH",
"485 1294 OFFCURVE",
"487 1372 OFFCURVE",
"491 1397 CURVE",
"500 1486 OFFCURVE",
"539 1517 OFFCURVE",
"646 1517 CURVE",
"679 1551 LINE",
"679 1674 LINE",
"620 1674 LINE SMOOTH",
"551 1674 OFFCURVE",
"502 1669 OFFCURVE",
"471 1658 CURVE SMOOTH"
);
}
);
width = 749;
}
);
note = braceleft;
unicode = 007B;
},
{
glyphname = bar;
lastChange = "2017-07-29 14:52:11 +0000";
layers = (
{
layerId = "39211C88-9C10-4AFB-8159-811865CCF3A1";
paths = (
{
closed = 1;
nodes = (
"360 1688 LINE",
"70 1688 LINE",
"70 -234 LINE",
"360 -234 LINE"
);
}
);
width = 430;
}
);
note = bar;
unicode = 007C;
},
{
glyphname = braceright;
lastChange = "2017-07-29 14:52:11 +0000";
layers = (
{
layerId = "39211C88-9C10-4AFB-8159-811865CCF3A1";
paths = (
{
closed = 1;
nodes = (
"546 802 OFFCURVE",
"480 854 OFFCURVE",
"459 946 CURVE SMOOTH",
"448 991 OFFCURVE",
"443 1074 OFFCURVE",
"442 1194 CURVE SMOOTH",
"441 1314 OFFCURVE",
"437 1400 OFFCURVE",
"429 1453 CURVE SMOOTH",
"420 1506 OFFCURVE",
"402 1549 OFFCURVE",
"374 1584 CURVE SMOOTH",
"318 1653 OFFCURVE",
"257 1674 OFFCURVE",
"126 1674 CURVE SMOOTH",
"70 1674 LINE",
"70 1551 LINE",
"101 1517 LINE",
"202 1517 OFFCURVE",
"240 1486 OFFCURVE",
"249 1397 CURVE SMOOTH",
"252 1372 OFFCURVE",
"254 1294 OFFCURVE",
"254 1164 CURVE SMOOTH",
"254 877 OFFCURVE",
"340 786 OFFCURVE",
"448 713 CURVE",
"376 664 OFFCURVE",
"285 580 OFFCURVE",
"261 432 CURVE SMOOTH",
"255 387 OFFCURVE",
"252 282 OFFCURVE",
"252 115 CURVE SMOOTH",
"255 -60 OFFCURVE",
"240 -91 OFFCURVE",
"101 -91 CURVE",
"70 -119 LINE",
"70 -248 LINE",
"126 -248 LINE SMOOTH",
"183 -248 OFFCURVE",
"225 -244 OFFCURVE",
"250 -237 CURVE SMOOTH",
"325 -216 OFFCURVE",
"370 -177 OFFCURVE",
"403 -109 CURVE SMOOTH",
"435 -42 OFFCURVE",
"441 23 OFFCURVE",
"442 246 CURVE SMOOTH",
"443 357 OFFCURVE",
"448 436 OFFCURVE",
"459 482 CURVE SMOOTH",
"480 573 OFFCURVE",
"546 626 OFFCURVE",
"649 641 CURVE",
"649 782 LINE"
);
}
);
width = 719;
}
);
note = braceright;
unicode = 007D;
},
{
glyphname = alef;
lastChange = "2017-07-29 14:52:11 +0000";
layers = (
{
layerId = "39211C88-9C10-4AFB-8159-811865CCF3A1";
paths = (
{
closed = 1;
nodes = (
"598 994 LINE SMOOTH",
"573 975 OFFCURVE",
"559 974 OFFCURVE",
"547 1005 CURVE",
"358 1413 LINE",
"347 1444 OFFCURVE",
"334 1474 OFFCURVE",
"297 1474 CURVE SMOOTH",
"70 1474 LINE SMOOTH",
"43 1474 OFFCURVE",
"30 1453 OFFCURVE",
"39 1428 CURVE",
"202 1056 LINE",
"213 1025 OFFCURVE",
"222 998 OFFCURVE",
"223 971 CURVE SMOOTH",
"224 944 OFFCURVE",
"217 919 OFFCURVE",
"200 894 CURVE SMOOTH",
"102 758 LINE",
"81 734 OFFCURVE",
"72 707 OFFCURVE",
"69 679 CURVE SMOOTH",
"66 651 OFFCURVE",
"72 621 OFFCURVE",
"81 589 CURVE SMOOTH",
"140 372 LINE SMOOTH",
"155 321 OFFCURVE",
"145 299 OFFCURVE",
"89 299 CURVE SMOOTH",
"54 299 OFFCURVE",
"43 273 OFFCURVE",
"43 241 CURVE SMOOTH",
"40 50 LINE SMOOTH",
"40 21 OFFCURVE",
"54 0 OFFCURVE",
"85 0 CURVE SMOOTH",
"388 0 LINE SMOOTH",
"417 1 OFFCURVE",
"436 19 OFFCURVE",
"436 58 CURVE SMOOTH",
"436 185 LINE SMOOTH",
"436 245 OFFCURVE",
"422 306 OFFCURVE",
"401 366 CURVE SMOOTH",
"335 553 LINE SMOOTH",
"324 584 OFFCURVE",
"339 613 OFFCURVE",
"374 642 CURVE",
"591 73 LINE",
"600 53 OFFCURVE",
"609 34 OFFCURVE",
"623 21 CURVE SMOOTH",
"637 8 OFFCURVE",
"657 0 OFFCURVE",
"692 0 CURVE SMOOTH",
"821 0 LINE SMOOTH",
"901 0 OFFCURVE",
"910 46 OFFCURVE",
"875 135 CURVE SMOOTH",
"690 608 LINE SMOOTH",
"669 659 OFFCURVE",
"674 698 OFFCURVE",
"713 737 CURVE",
"880 919 LINE",
"903 946 OFFCURVE",
"916 966 OFFCURVE",
"916 1005 CURVE SMOOTH",
"916 1296 LINE SMOOTH",
"916 1341 OFFCURVE",
"898 1386 OFFCURVE",
"869 1419 CURVE SMOOTH",
"840 1452 OFFCURVE",
"799 1474 OFFCURVE",
"754 1474 CURVE SMOOTH",
"592 1474 LINE SMOOTH",
"545 1474 OFFCURVE",
"535 1453 OFFCURVE",
"535 1410 CURVE SMOOTH",
"535 1269 LINE SMOOTH",
"535 1250 OFFCURVE",
"535 1233 OFFCURVE",
"540 1219 CURVE SMOOTH",
"545 1205 OFFCURVE",
"556 1195 OFFCURVE",
"577 1195 CURVE SMOOTH",
"605 1195 LINE SMOOTH",
"617 1195 OFFCURVE",
"627 1185 OFFCURVE",
"627 1173 CURVE SMOOTH",
"627 1017 LINE"
);
}
);
width = 966;
}
);
note = alef;
unicode = 05D0;
},
{
glyphname = bet;
lastChange = "2017-07-29 14:52:11 +0000";
layers = (
{
layerId = "39211C88-9C10-4AFB-8159-811865CCF3A1";
paths = (
{
closed = 1;
nodes = (
"669 300 OFFCURVE",
"664 321 OFFCURVE",
"664 376 CURVE SMOOTH",
"664 868 LINE",
"664 1408 LINE SMOOTH",
"664 1463 OFFCURVE",
"654 1474 OFFCURVE",
"603 1474 CURVE SMOOTH",
"109 1474 LINE SMOOTH",
"70 1474 OFFCURVE",
"50 1443 OFFCURVE",
"50 1411 CURVE SMOOTH",
"50 1257 LINE SMOOTH",
"50 1218 OFFCURVE",
"66 1195 OFFCURVE",
"111 1195 CURVE SMOOTH",
"326 1195 LINE SMOOTH",
"378 1195 OFFCURVE",
"395 1170 OFFCURVE",
"395 1115 CURVE SMOOTH",
"395 376 LINE SMOOTH",
"395 317 OFFCURVE",
"377 300 OFFCURVE",
"318 300 CURVE SMOOTH",
"107 300 LINE SMOOTH",
"76 300 OFFCURVE",
"51 281 OFFCURVE",
"51 246 CURVE SMOOTH",
"51 232 OFFCURVE",
"51 217 OFFCURVE",
"51 200 CURVE",
"50 183 OFFCURVE",
"50 167 OFFCURVE",
"50 150 CURVE SMOOTH",
"50 133 OFFCURVE",
"50 116 OFFCURVE",
"50 99 CURVE SMOOTH",
"50 82 OFFCURVE",
"50 67 OFFCURVE",
"51 53 CURVE",
"52 16 OFFCURVE",
"65 0 OFFCURVE",
"102 0 CURVE SMOOTH",
"698 0 LINE SMOOTH",
"737 0 OFFCURVE",
"753 16 OFFCURVE",
"753 55 CURVE SMOOTH",
"753 265 LINE SMOOTH",
"753 286 OFFCURVE",
"749 300 OFFCURVE",
"718 300 CURVE SMOOTH",
"712 300 LINE SMOOTH"
);
}
);
width = 803;
}
);
note = bet;
unicode = 05D1;
},
{
glyphname = gimel;
lastChange = "2017-07-29 14:52:11 +0000";
layers = (
{
layerId = "39211C88-9C10-4AFB-8159-811865CCF3A1";
paths = (
{
closed = 1;
nodes = (
"338 47 OFFCURVE",
"341 37 OFFCURVE",
"345 29 CURVE SMOOTH",
"352 14 OFFCURVE",
"364 0 OFFCURVE",
"383 0 CURVE SMOOTH",
"541 0 LINE SMOOTH",
"594 0 OFFCURVE",
"604 21 OFFCURVE",
"597 77 CURVE",
"525 474 LINE",
"518 1401 LINE",
"518 1460 OFFCURVE",
"500 1474 OFFCURVE",
"441 1474 CURVE SMOOTH",
"172 1474 LINE SMOOTH",
"120 1474 OFFCURVE",
"108 1456 OFFCURVE",
"108 1403 CURVE SMOOTH",
"108 1247 LINE SMOOTH",
"108 1216 OFFCURVE",
"131 1195 OFFCURVE",
"162 1195 CURVE SMOOTH",
"198 1195 OFFCURVE",
"220 1190 OFFCURVE",
"232 1177 CURVE SMOOTH",
"244 1164 OFFCURVE",
"247 1144 OFFCURVE",
"247 1112 CURVE SMOOTH",
"269 374 LINE",
"336 58 LINE SMOOTH"
);
},
{
closed = 1;
nodes = (
"50 13 OFFCURVE",
"52 4 OFFCURVE",
"56 0 CURVE",
"59 -4 OFFCURVE",
"64 -6 OFFCURVE",
"69 -6 CURVE SMOOTH",
"74 -6 OFFCURVE",
"81 -4 OFFCURVE",
"88 1 CURVE",
"433 209 LINE",
"433 479 LINE",
"82 267 LINE",
"76 263 OFFCURVE",
"71 259 OFFCURVE",
"66 254 CURVE",
"58 245 OFFCURVE",
"50 233 OFFCURVE",
"50 217 CURVE SMOOTH",
"50 26 LINE SMOOTH"
);
}
);
width = 649;
}
);
note = gimel;
unicode = 05D2;
},
{
glyphname = dalet;
lastChange = "2017-07-29 14:52:11 +0000";
layers = (
{
layerId = "39211C88-9C10-4AFB-8159-811865CCF3A1";
paths = (
{
closed = 1;
nodes = (
"596 1151 OFFCURVE",
"596 1164 OFFCURVE",
"600 1175 CURVE",
"603 1186 OFFCURVE",
"610 1194 OFFCURVE",
"623 1194 CURVE SMOOTH",
"629 1194 LINE SMOOTH",
"652 1194 OFFCURVE",
"664 1202 OFFCURVE",
"672 1214 CURVE SMOOTH",
"679 1225 OFFCURVE",
"680 1241 OFFCURVE",
"680 1257 CURVE SMOOTH",
"680 1420 LINE SMOOTH",
"680 1463 OFFCURVE",
"664 1474 OFFCURVE",
"617 1474 CURVE SMOOTH",
"116 1474 LINE SMOOTH",
"65 1474 OFFCURVE",
"50 1452 OFFCURVE",
"50 1409 CURVE SMOOTH",
"50 1258 LINE SMOOTH",
"50 1211 OFFCURVE",
"64 1196 OFFCURVE",
"116 1195 CURVE SMOOTH",
"259 1195 LINE SMOOTH",
"296 1195 OFFCURVE",
"319 1188 OFFCURVE",
"332 1172 CURVE SMOOTH",
"345 1156 OFFCURVE",
"350 1129 OFFCURVE",
"350 1092 CURVE SMOOTH",
"350 60 LINE SMOOTH",
"350 20 OFFCURVE",
"358 0 OFFCURVE",
"399 0 CURVE SMOOTH",
"537 0 LINE SMOOTH",
"576 0 OFFCURVE",
"596 24 OFFCURVE",
"596 63 CURVE SMOOTH",
"596 1139 LINE SMOOTH"
);
}
);
width = 730;
}
);
note = dalet;
unicode = 05D3;
},
{
glyphname = he;
lastChange = "2017-07-29 14:52:11 +0000";
layers = (
{
layerId = "39211C88-9C10-4AFB-8159-811865CCF3A1";
paths = (
{
closed = 1;
nodes = (
"683 1424 OFFCURVE",
"680 1445 OFFCURVE",
"668 1458 CURVE",
"655 1470 OFFCURVE",
"634 1474 OFFCURVE",
"598 1474 CURVE SMOOTH",
"98 1474 LINE",
"71 1473 OFFCURVE",
"50 1452 OFFCURVE",
"50 1424 CURVE SMOOTH",
"50 1244 LINE SMOOTH",
"50 1219 OFFCURVE",
"69 1195 OFFCURVE",
"96 1195 CURVE SMOOTH",
"340 1195 LINE SMOOTH",
"395 1195 OFFCURVE",
"408 1180 OFFCURVE",
"411 1127 CURVE",
"411 51 LINE SMOOTH",
"411 20 OFFCURVE",
"420 0 OFFCURVE",
"451 0 CURVE SMOOTH",
"637 0 LINE SMOOTH",
"665 0 OFFCURVE",
"683 20 OFFCURVE",
"683 51 CURVE SMOOTH",
"683 1388 LINE SMOOTH"
);
},
{
closed = 1;
nodes = (
"50 879 OFFCURVE",
"75 904 OFFCURVE",
"107 904 CURVE SMOOTH",
"242 904 LINE SMOOTH",
"273 904 OFFCURVE",
"299 879 OFFCURVE",
"299 847 CURVE SMOOTH",
"299 57 LINE SMOOTH",
"299 25 OFFCURVE",
"273 0 OFFCURVE",
"242 0 CURVE SMOOTH",
"107 0 LINE SMOOTH",
"75 0 OFFCURVE",
"50 25 OFFCURVE",
"50 57 CURVE SMOOTH",
"50 847 LINE SMOOTH"
);
}
);
width = 733;
}
);
note = he;
unicode = 05D4;
},
{
glyphname = vav;
lastChange = "2017-07-29 14:52:11 +0000";
layers = (
{
layerId = "39211C88-9C10-4AFB-8159-811865CCF3A1";
paths = (
{
closed = 1;
nodes = (
"373 1451 OFFCURVE",
"355 1473 OFFCURVE",
"308 1474 CURVE SMOOTH",
"116 1474 LINE SMOOTH",
"69 1474 OFFCURVE",
"50 1453 OFFCURVE",
"50 1402 CURVE SMOOTH",
"50 1240 LINE",
"51 1226 OFFCURVE",
"53 1216 OFFCURVE",
"56 1210 CURVE",
"63 1198 OFFCURVE",
"71 1193 OFFCURVE",
"80 1190 CURVE SMOOTH",
"89 1187 OFFCURVE",
"98 1181 OFFCURVE",
"103 1165 CURVE",
"106 1157 OFFCURVE",
"107 1145 OFFCURVE",
"107 1128 CURVE SMOOTH",
"108 59 LINE SMOOTH",
"108 22 OFFCURVE",
"119 0 OFFCURVE",
"160 0 CURVE SMOOTH",
"316 0 LINE SMOOTH",
"360 0 OFFCURVE",
"373 20 OFFCURVE",
"373 59 CURVE SMOOTH",
"373 1406 LINE SMOOTH"
);
}
);
width = 423;
}
);
note = vav;
unicode = 05D5;
},
{
glyphname = zayin;
lastChange = "2017-07-29 14:52:11 +0000";
layers = (
{
layerId = "39211C88-9C10-4AFB-8159-811865CCF3A1";
paths = (
{
closed = 1;
nodes = (
"63 1474 OFFCURVE",
"50 1443 OFFCURVE",
"50 1404 CURVE SMOOTH",
"50 1248 LINE SMOOTH",
"50 1221 OFFCURVE",
"59 1200 OFFCURVE",
"83 1188 CURVE SMOOTH",
"108 1175 OFFCURVE",
"112 1154 OFFCURVE",
"101 1127 CURVE SMOOTH",
"66 1038 LINE SMOOTH",
"51 999 OFFCURVE",
"49 965 OFFCURVE",
"62 922 CURVE SMOOTH",
"119 745 LINE SMOOTH",
"134 698 OFFCURVE",
"140 651 OFFCURVE",
"131 603 CURVE SMOOTH",
"87 335 LINE",
"54 60 LINE SMOOTH",
"49 20 OFFCURVE",
"61 3 OFFCURVE",
"100 0 CURVE",
"264 0 LINE SMOOTH",
"295 1 OFFCURVE",
"311 31 OFFCURVE",
"316 60 CURVE SMOOTH",
"392 514 LINE SMOOTH",
"404 582 OFFCURVE",
"411 646 OFFCURVE",
"408 710 CURVE SMOOTH",
"405 773 OFFCURVE",
"392 835 OFFCURVE",
"363 896 CURVE SMOOTH",
"326 976 OFFCURVE",
"326 1052 OFFCURVE",
"374 1124 CURVE SMOOTH",
"399 1161 OFFCURVE",
"414 1197 OFFCURVE",
"422 1234 CURVE SMOOTH",
"430 1270 OFFCURVE",
"432 1309 OFFCURVE",
"432 1354 CURVE SMOOTH",
"432 1386 OFFCURVE",
"422 1417 OFFCURVE",
"403 1439 CURVE SMOOTH",
"384 1461 OFFCURVE",
"358 1474 OFFCURVE",
"326 1474 CURVE SMOOTH",
"107 1474 LINE SMOOTH"
);
}
);
width = 482;
}
);
note = zayin;
unicode = 05D6;
},
{
glyphname = het;
lastChange = "2017-07-29 14:52:11 +0000";
layers = (
{
layerId = "39211C88-9C10-4AFB-8159-811865CCF3A1";
paths = (
{
closed = 1;
nodes = (
"324 1163 OFFCURVE",
"355 1195 OFFCURVE",
"394 1195 CURVE SMOOTH",
"433 1195 OFFCURVE",
"465 1163 OFFCURVE",
"465 1124 CURVE SMOOTH",
"465 86 LINE SMOOTH",
"465 30 OFFCURVE",
"482 0 OFFCURVE",
"537 0 CURVE SMOOTH",
"680 0 LINE SMOOTH",
"720 0 OFFCURVE",
"744 27 OFFCURVE",
"744 86 CURVE SMOOTH",
"744 1376 LINE SMOOTH",
"744 1436 OFFCURVE",
"697 1474 OFFCURVE",
"638 1474 CURVE SMOOTH",
"150 1475 LINE SMOOTH",
"105 1475 OFFCURVE",
"79 1469 OFFCURVE",
"66 1453 CURVE SMOOTH",
"53 1437 OFFCURVE",
"50 1411 OFFCURVE",
"50 1374 CURVE SMOOTH",
"50 88 LINE SMOOTH",
"50 33 OFFCURVE",
"62 0 OFFCURVE",
"113 0 CURVE SMOOTH",
"251 0 LINE SMOOTH",
"311 0 OFFCURVE",
"324 27 OFFCURVE",
"324 88 CURVE SMOOTH",
"324 1124 LINE SMOOTH"
);
}
);
width = 794;
}
);
note = het;
unicode = 05D7;
},
{
glyphname = tet;
lastChange = "2017-07-29 14:52:11 +0000";
layers = (
{
layerId = "39211C88-9C10-4AFB-8159-811865CCF3A1";
paths = (
{
closed = 1;
nodes = (
"347 1459 OFFCURVE",
"331 1474 OFFCURVE",
"287 1474 CURVE SMOOTH",
"105 1474 LINE SMOOTH",
"64 1474 OFFCURVE",
"50 1459 OFFCURVE",
"50 1423 CURVE SMOOTH",
"50 1259 LINE SMOOTH",
"50 1232 OFFCURVE",
"60 1223 OFFCURVE",
"69 1215 CURVE",
"78 1206 OFFCURVE",
"88 1197 OFFCURVE",
"88 1172 CURVE SMOOTH",
"88 168 LINE SMOOTH",
"88 119 OFFCURVE",
"108 77 OFFCURVE",
"141 48 CURVE SMOOTH",
"173 19 OFFCURVE",
"219 1 OFFCURVE",
"268 0 CURVE SMOOTH",
"605 0 LINE SMOOTH",
"649 0 OFFCURVE",
"695 17 OFFCURVE",
"730 47 CURVE SMOOTH",
"765 77 OFFCURVE",
"788 117 OFFCURVE",
"788 168 CURVE SMOOTH",
"788 1413 LINE SMOOTH",
"788 1462 OFFCURVE",
"776 1473 OFFCURVE",
"727 1474 CURVE SMOOTH",
"517 1474 LINE SMOOTH",
"490 1474 OFFCURVE",
"475 1472 OFFCURVE",
"464 1464 CURVE",
"453 1455 OFFCURVE",
"449 1441 OFFCURVE",
"444 1414 CURVE SMOOTH",
"397 1110 LINE",
"396 1101 OFFCURVE",
"396 1091 OFFCURVE",
"397 1082 CURVE",
"400 1063 OFFCURVE",
"426 1053 OFFCURVE",
"442 1057 CURVE",
"458 1060 OFFCURVE",
"472 1072 OFFCURVE",
"485 1089 CURVE",
"492 1097 OFFCURVE",
"498 1105 OFFCURVE",
"505 1113 CURVE",
"517 1106 OFFCURVE",
"524 1099 OFFCURVE",
"527 1084 CURVE SMOOTH",
"530 1069 OFFCURVE",
"530 1049 OFFCURVE",
"530 1014 CURVE SMOOTH",
"530 347 LINE SMOOTH",
"530 318 OFFCURVE",
"518 295 OFFCURVE",
"500 280 CURVE SMOOTH",
"482 264 OFFCURVE",
"459 256 OFFCURVE",
"438 256 CURVE SMOOTH",
"379 256 OFFCURVE",
"347 288 OFFCURVE",
"347 347 CURVE SMOOTH",
"347 1414 LINE SMOOTH"
);
}
);
width = 838;
}
);
note = tet;
unicode = 05D8;
},
{
glyphname = yod;
lastChange = "2017-07-29 14:52:11 +0000";
layers = (
{
layerId = "39211C88-9C10-4AFB-8159-811865CCF3A1";
paths = (
{
closed = 1;
nodes = (
"352 1438 OFFCURVE",
"315 1474 OFFCURVE",
"227 1474 CURVE SMOOTH",
"100 1474 LINE SMOOTH",
"71 1474 OFFCURVE",
"50 1459 OFFCURVE",
"50 1427 CURVE SMOOTH",
"50 1225 LINE SMOOTH",
"50 1206 OFFCURVE",
"60 1201 OFFCURVE",
"69 1193 CURVE SMOOTH",
"78 1185 OFFCURVE",
"88 1173 OFFCURVE",
"88 1141 CURVE SMOOTH",
"88 852 LINE SMOOTH",
"88 809 OFFCURVE",
"100 784 OFFCURVE",
"151 784 CURVE SMOOTH",
"279 784 LINE SMOOTH",
"328 784 OFFCURVE",
"352 792 OFFCURVE",
"352 852 CURVE SMOOTH",
"352 1350 LINE SMOOTH"
);
}
);
width = 402;
}
);
note = yod;
unicode = 05D9;
},
{
glyphname = kaffinal;
lastChange = "2017-07-29 14:52:11 +0000";
layers = (
{
layerId = "39211C88-9C10-4AFB-8159-811865CCF3A1";
paths = (
{
closed = 1;
nodes = (
"570 1417 OFFCURVE",
"567 1439 OFFCURVE",
"555 1454 CURVE SMOOTH",
"543 1469 OFFCURVE",
"521 1474 OFFCURVE",
"482 1474 CURVE SMOOTH",
"97 1474 LINE SMOOTH",
"69 1474 OFFCURVE",
"50 1454 OFFCURVE",
"50 1425 CURVE SMOOTH",
"50 1246 LINE SMOOTH",
"50 1207 OFFCURVE",
"64 1195 OFFCURVE",
"105 1195 CURVE SMOOTH",
"209 1195 LINE SMOOTH",
"234 1195 OFFCURVE",
"253 1194 OFFCURVE",
"267 1193 CURVE",
"294 1190 OFFCURVE",
"306 1177 OFFCURVE",
"310 1149 CURVE",
"311 1135 OFFCURVE",
"312 1115 OFFCURVE",
"312 1090 CURVE SMOOTH",
"312 -110 LINE SMOOTH",
"312 -157 OFFCURVE",
"326 -179 OFFCURVE",
"371 -179 CURVE SMOOTH",
"511 -179 LINE SMOOTH",
"558 -179 OFFCURVE",
"570 -155 OFFCURVE",
"570 -110 CURVE SMOOTH",
"570 1382 LINE SMOOTH"
);
}
);
width = 620;
}
);
note = kaffinal;
unicode = 05DA;
},
{
glyphname = kaf;
lastChange = "2017-07-29 14:52:11 +0000";
layers = (
{
layerId = "39211C88-9C10-4AFB-8159-811865CCF3A1";
paths = (
{
closed = 1;
nodes = (
"464 0 OFFCURVE",
"516 23 OFFCURVE",
"553 60 CURVE SMOOTH",
"590 97 OFFCURVE",
"613 149 OFFCURVE",
"613 205 CURVE SMOOTH",
"613 1420 LINE SMOOTH",
"613 1460 OFFCURVE",
"599 1474 OFFCURVE",
"556 1474 CURVE SMOOTH",
"119 1474 LINE SMOOTH",
"75 1474 OFFCURVE",
"62 1459 OFFCURVE",
"62 1420 CURVE SMOOTH",
"62 1256 LINE SMOOTH",
"62 1213 OFFCURVE",
"82 1195 OFFCURVE",
"125 1195 CURVE SMOOTH",
"256 1195 LINE SMOOTH",
"287 1195 OFFCURVE",
"305 1192 OFFCURVE",
"317 1181 CURVE",
"328 1169 OFFCURVE",
"331 1151 OFFCURVE",
"331 1119 CURVE SMOOTH",
"331 355 LINE SMOOTH",
"331 291 OFFCURVE",
"308 270 OFFCURVE",
"247 270 CURVE SMOOTH",
"110 270 LINE SMOOTH",
"66 270 OFFCURVE",
"50 255 OFFCURVE",
"50 216 CURVE SMOOTH",
"50 54 LINE SMOOTH",
"50 11 OFFCURVE",
"66 1 OFFCURVE",
"109 0 CURVE SMOOTH",
"408 0 LINE SMOOTH"
);
}
);
width = 663;
}
);
note = kaf;
unicode = 05DB;
},
{
glyphname = lamed;
lastChange = "2017-07-29 14:52:11 +0000";
layers = (
{
layerId = "39211C88-9C10-4AFB-8159-811865CCF3A1";
paths = (
{
closed = 1;
nodes = (
"625 1417 OFFCURVE",
"623 1444 OFFCURVE",
"608 1458 CURVE SMOOTH",
"593 1472 OFFCURVE",
"568 1474 OFFCURVE",
"520 1474 CURVE SMOOTH",
"351 1474 LINE SMOOTH",
"327 1474 OFFCURVE",
"310 1475 OFFCURVE",
"299 1483 CURVE",
"288 1490 OFFCURVE",
"284 1505 OFFCURVE",
"284 1533 CURVE SMOOTH",
"284 1567 LINE SMOOTH",
"284 1618 OFFCURVE",
"274 1634 OFFCURVE",
"227 1634 CURVE SMOOTH",
"105 1634 LINE SMOOTH",
"61 1634 OFFCURVE",
"50 1617 OFFCURVE",
"50 1570 CURVE SMOOTH",
"50 1278 LINE SMOOTH",
"50 1247 OFFCURVE",
"54 1226 OFFCURVE",
"67 1214 CURVE",
"79 1201 OFFCURVE",
"100 1195 OFFCURVE",
"135 1195 CURVE SMOOTH",
"311 1195 LINE SMOOTH",
"356 1195 OFFCURVE",
"374 1179 OFFCURVE",
"374 1132 CURVE SMOOTH",
"374 407 LINE SMOOTH",
"374 381 OFFCURVE",
"374 361 OFFCURVE",
"373 347 CURVE SMOOTH",
"371 318 OFFCURVE",
"359 304 OFFCURVE",
"331 297 CURVE SMOOTH",
"317 294 OFFCURVE",
"297 290 OFFCURVE",
"272 285 CURVE",
"241 280 OFFCURVE",
"225 265 OFFCURVE",
"224 234 CURVE",
"225 48 LINE SMOOTH",
"225 17 OFFCURVE",
"245 -1 OFFCURVE",
"276 0 CURVE SMOOTH",
"407 0 LINE SMOOTH",
"467 0 OFFCURVE",
"521 24 OFFCURVE",
"561 63 CURVE SMOOTH",
"600 102 OFFCURVE",
"624 156 OFFCURVE",
"624 216 CURVE SMOOTH",
"625 1372 LINE SMOOTH"
);
}
);
width = 675;
}
);
note = lamed;
unicode = 05DC;
},
{
glyphname = memfinal;
lastChange = "2017-07-29 14:52:11 +0000";
layers = (
{
layerId = "39211C88-9C10-4AFB-8159-811865CCF3A1";
paths = (
{
closed = 1;
nodes = (
"761 1449 OFFCURVE",
"747 1474 OFFCURVE",
"700 1474 CURVE SMOOTH",
"110 1474 LINE SMOOTH",
"63 1474 OFFCURVE",
"50 1465 OFFCURVE",
"50 1418 CURVE SMOOTH",
"50 1239 LINE SMOOTH",
"50 1225 OFFCURVE",
"51 1215 OFFCURVE",
"54 1209 CURVE",
"58 1197 OFFCURVE",
"66 1192 OFFCURVE",
"75 1188 CURVE",
"83 1184 OFFCURVE",
"91 1174 OFFCURVE",
"96 1151 CURVE",
"98 1139 OFFCURVE",
"99 1122 OFFCURVE",
"99 1100 CURVE SMOOTH",
"99 71 LINE SMOOTH",
"99 42 OFFCURVE",
"102 25 OFFCURVE",
"113 14 CURVE SMOOTH",
"124 3 OFFCURVE",
"142 0 OFFCURVE",
"171 0 CURVE SMOOTH",
"696 0 LINE SMOOTH",
"748 0 OFFCURVE",
"761 13 OFFCURVE",
"761 64 CURVE SMOOTH",
"761 1401 LINE SMOOTH"
);
},
{
closed = 1;
nodes = (
"509 309 OFFCURVE",
"476 277 OFFCURVE",
"433 277 CURVE SMOOTH",
"390 277 OFFCURVE",
"358 309 OFFCURVE",
"358 352 CURVE SMOOTH",
"358 1105 LINE SMOOTH",
"358 1148 OFFCURVE",
"390 1181 OFFCURVE",
"433 1181 CURVE SMOOTH",
"476 1181 OFFCURVE",
"509 1148 OFFCURVE",
"509 1105 CURVE SMOOTH",
"509 352 LINE SMOOTH"
);
}
);
width = 811;
}
);
note = memfinal;
unicode = 05DD;
},
{
glyphname = mem;
lastChange = "2017-07-29 14:52:11 +0000";
layers = (
{
layerId = "39211C88-9C10-4AFB-8159-811865CCF3A1";
paths = (
{
closed = 1;
nodes = (
"390 1170 OFFCURVE",
"425 1209 OFFCURVE",
"473 1209 CURVE SMOOTH",
"494 1209 OFFCURVE",
"516 1199 OFFCURVE",
"532 1184 CURVE SMOOTH",
"547 1169 OFFCURVE",
"557 1147 OFFCURVE",
"557 1126 CURVE SMOOTH",
"557 302 LINE SMOOTH",
"557 271 OFFCURVE",
"555 252 OFFCURVE",
"547 241 CURVE",
"539 229 OFFCURVE",
"525 226 OFFCURVE",
"500 226 CURVE SMOOTH",
"464 226 OFFCURVE",
"455 202 OFFCURVE",
"455 169 CURVE SMOOTH",
"455 59 LINE SMOOTH",
"455 16 OFFCURVE",
"469 1 OFFCURVE",
"517 0 CURVE SMOOTH",
"763 0 LINE SMOOTH",
"795 0 OFFCURVE",
"815 5 OFFCURVE",
"827 17 CURVE",
"838 29 OFFCURVE",
"842 48 OFFCURVE",
"842 79 CURVE SMOOTH",
"842 1145 LINE SMOOTH",
"842 1226 OFFCURVE",
"817 1309 OFFCURVE",
"766 1371 CURVE SMOOTH",
"715 1433 OFFCURVE",
"638 1474 OFFCURVE",
"533 1474 CURVE SMOOTH",
"108 1474 LINE SMOOTH",
"64 1474 OFFCURVE",
"50 1460 OFFCURVE",
"50 1417 CURVE SMOOTH",
"50 1249 LINE SMOOTH",
"50 1226 OFFCURVE",
"66 1215 OFFCURVE",
"99 1215 CURVE SMOOTH",
"114 1215 OFFCURVE",
"124 1210 OFFCURVE",
"128 1201 CURVE SMOOTH",
"136 1182 OFFCURVE",
"131 1151 OFFCURVE",
"123 1112 CURVE SMOOTH",
"119 1092 OFFCURVE",
"117 1071 OFFCURVE",
"117 1050 CURVE SMOOTH",
"117 105 LINE SMOOTH",
"117 77 OFFCURVE",
"117 51 OFFCURVE",
"125 32 CURVE SMOOTH",
"133 12 OFFCURVE",
"148 0 OFFCURVE",
"179 0 CURVE SMOOTH",
"287 0 LINE SMOOTH",
"328 0 OFFCURVE",
"354 1 OFFCURVE",
"370 14 CURVE SMOOTH",
"385 26 OFFCURVE",
"390 50 OFFCURVE",
"390 98 CURVE SMOOTH",
"390 1126 LINE SMOOTH"
);
}
);
width = 892;
}
);
note = mem;
unicode = 05DE;
},
{
glyphname = nunfinal;
lastChange = "2017-07-29 14:52:11 +0000";
layers = (
{
layerId = "39211C88-9C10-4AFB-8159-811865CCF3A1";
paths = (
{
closed = 1;
nodes = (
"373 1451 OFFCURVE",
"355 1473 OFFCURVE",
"308 1474 CURVE SMOOTH",
"116 1474 LINE SMOOTH",
"69 1474 OFFCURVE",
"50 1453 OFFCURVE",
"50 1402 CURVE SMOOTH",
"50 1240 LINE",
"51 1226 OFFCURVE",
"53 1216 OFFCURVE",
"56 1210 CURVE",
"63 1198 OFFCURVE",
"71 1193 OFFCURVE",
"80 1190 CURVE SMOOTH",
"89 1187 OFFCURVE",
"98 1181 OFFCURVE",
"103 1165 CURVE",
"106 1157 OFFCURVE",
"107 1145 OFFCURVE",
"107 1128 CURVE SMOOTH",
"108 -137 LINE SMOOTH",
"108 -174 OFFCURVE",
"119 -196 OFFCURVE",
"160 -196 CURVE SMOOTH",
"316 -196 LINE SMOOTH",
"360 -196 OFFCURVE",
"373 -176 OFFCURVE",
"373 -137 CURVE SMOOTH",
"373 1406 LINE SMOOTH"
);
}
);
width = 423;
}
);
note = nunfinal;
unicode = 05DF;
},
{
glyphname = nun;
lastChange = "2017-07-29 14:52:11 +0000";
layers = (
{
layerId = "39211C88-9C10-4AFB-8159-811865CCF3A1";
paths = (
{
closed = 1;
nodes = (
"301 0 OFFCURVE",
"362 27 OFFCURVE",
"406 70 CURVE SMOOTH",
"449 113 OFFCURVE",
"476 172 OFFCURVE",
"476 239 CURVE SMOOTH",
"476 1402 LINE SMOOTH",
"476 1457 OFFCURVE",
"463 1474 OFFCURVE",
"419 1474 CURVE SMOOTH",
"147 1474 LINE SMOOTH",
"108 1474 OFFCURVE",
"95 1461 OFFCURVE",
"95 1422 CURVE SMOOTH",
"95 1259 LINE SMOOTH",
"95 1240 OFFCURVE",
"98 1227 OFFCURVE",
"103 1219 CURVE SMOOTH",
"113 1202 OFFCURVE",
"128 1195 OFFCURVE",
"145 1194 CURVE",
"154 1193 OFFCURVE",
"162 1192 OFFCURVE",
"169 1190 CURVE",
"184 1185 OFFCURVE",
"195 1173 OFFCURVE",
"195 1141 CURVE SMOOTH",
"194 338 LINE SMOOTH",
"194 307 OFFCURVE",
"183 292 OFFCURVE",
"165 284 CURVE SMOOTH",
"147 276 OFFCURVE",
"124 276 OFFCURVE",
"101 276 CURVE SMOOTH",
"67 276 OFFCURVE",
"50 258 OFFCURVE",
"50 223 CURVE SMOOTH",
"50 54 LINE SMOOTH",
"50 15 OFFCURVE",
"63 0 OFFCURVE",
"100 0 CURVE SMOOTH",
"236 0 LINE SMOOTH"
);
}
);
width = 526;
}
);
note = nun;
unicode = 05E0;
},
{
glyphname = samekh;
lastChange = "2017-07-29 14:52:11 +0000";
layers = (
{
layerId = "39211C88-9C10-4AFB-8159-811865CCF3A1";
paths = (
{
closed = 1;
nodes = (
"559 318 OFFCURVE",
"547 295 OFFCURVE",
"529 280 CURVE SMOOTH",
"511 264 OFFCURVE",
"488 256 OFFCURVE",
"467 256 CURVE SMOOTH",
"408 256 OFFCURVE",
"376 288 OFFCURVE",
"376 347 CURVE SMOOTH",
"376 1172 LINE SMOOTH",
"376 1189 OFFCURVE",
"385 1205 OFFCURVE",
"404 1205 CURVE SMOOTH",
"531 1205 LINE SMOOTH",
"550 1205 OFFCURVE",
"559 1191 OFFCURVE",
"559 1172 CURVE SMOOTH",
"559 347 LINE SMOOTH"
);
},
{
closed = 1;
nodes = (
"830 1406 OFFCURVE",
"827 1434 OFFCURVE",
"814 1451 CURVE SMOOTH",
"801 1468 OFFCURVE",
"775 1474 OFFCURVE",
"731 1474 CURVE SMOOTH",
"114 1474 LINE SMOOTH",
"62 1474 OFFCURVE",
"52 1458 OFFCURVE",
"51 1411 CURVE SMOOTH",
"50 1359 OFFCURVE",
"50 1306 OFFCURVE",
"51 1253 CURVE",
"52 1237 OFFCURVE",
"56 1213 OFFCURVE",
"68 1206 CURVE SMOOTH",
"92 1193 OFFCURVE",
"103 1174 OFFCURVE",
"108 1154 CURVE SMOOTH",
"113 1134 OFFCURVE",
"113 1111 OFFCURVE",
"113 1090 CURVE SMOOTH",
"113 350 LINE SMOOTH",
"113 123 OFFCURVE",
"242 -6 OFFCURVE",
"469 -6 CURVE SMOOTH",
"549 -6 OFFCURVE",
"640 27 OFFCURVE",
"710 88 CURVE SMOOTH",
"780 148 OFFCURVE",
"829 237 OFFCURVE",
"829 350 CURVE SMOOTH",
"830 1365 LINE SMOOTH"
);
}
);
width = 880;
}
);
note = samekh;
unicode = 05E1;
},
{
glyphname = ayin;
lastChange = "2017-07-29 14:52:11 +0000";
layers = (
{
layerId = "39211C88-9C10-4AFB-8159-811865CCF3A1";
paths = (
{
closed = 1;
nodes = (
"792 1462 OFFCURVE",
"776 1474 OFFCURVE",
"725 1474 CURVE SMOOTH",
"515 1474 LINE SMOOTH",
"468 1474 OFFCURVE",
"453 1462 OFFCURVE",
"453 1415 CURVE SMOOTH",
"453 1256 LINE SMOOTH",
"453 1239 OFFCURVE",
"455 1225 OFFCURVE",
"458 1216 CURVE SMOOTH",
"464 1197 OFFCURVE",
"471 1188 OFFCURVE",
"482 1182 CURVE",
"487 1179 OFFCURVE",
"492 1175 OFFCURVE",
"496 1170 CURVE SMOOTH",
"504 1160 OFFCURVE",
"511 1144 OFFCURVE",
"511 1112 CURVE SMOOTH",
"511 368 LINE",
"511 326 LINE SMOOTH",
"511 310 OFFCURVE",
"494 292 OFFCURVE",
"473 292 CURVE SMOOTH",
"450 292 OFFCURVE",
"431 306 OFFCURVE",
"430 326 CURVE SMOOTH",
"386 1414 LINE SMOOTH",
"385 1454 OFFCURVE",
"369 1474 OFFCURVE",
"329 1474 CURVE SMOOTH",
"102 1474 LINE SMOOTH",
"63 1474 OFFCURVE",
"50 1455 OFFCURVE",
"50 1418 CURVE SMOOTH",
"50 1247 LINE SMOOTH",
"50 1200 OFFCURVE",
"69 1189 OFFCURVE",
"89 1179 CURVE SMOOTH",
"108 1169 OFFCURVE",
"126 1159 OFFCURVE",
"126 1119 CURVE",
"160 361 LINE SMOOTH",
"161 344 OFFCURVE",
"162 324 OFFCURVE",
"156 309 CURVE SMOOTH",
"150 294 OFFCURVE",
"138 283 OFFCURVE",
"114 283 CURVE SMOOTH",
"77 283 OFFCURVE",
"73 263 OFFCURVE",
"73 235 CURVE SMOOTH",
"73 76 LINE SMOOTH",
"73 41 OFFCURVE",
"77 23 OFFCURVE",
"87 13 CURVE SMOOTH",
"97 3 OFFCURVE",
"116 0 OFFCURVE",
"148 0 CURVE SMOOTH",
"642 0 LINE SMOOTH",
"689 0 OFFCURVE",
"726 21 OFFCURVE",
"752 57 CURVE SMOOTH",
"778 93 OFFCURVE",
"792 143 OFFCURVE",
"792 202 CURVE SMOOTH",
"792 1413 LINE SMOOTH"
);
}
);
width = 842;
}
);
note = ayin;
unicode = 05E2;
},
{
glyphname = pefinal;
lastChange = "2017-07-29 14:52:11 +0000";
layers = (
{
layerId = "39211C88-9C10-4AFB-8159-811865CCF3A1";
paths = (
{
closed = 1;
nodes = (
"495 -177 OFFCURVE",
"505 -197 OFFCURVE",
"548 -197 CURVE SMOOTH",
"713 -197 LINE SMOOTH",
"761 -197 OFFCURVE",
"770 -177 OFFCURVE",
"770 -129 CURVE SMOOTH",
"771 1396 LINE SMOOTH",
"771 1428 OFFCURVE",
"768 1447 OFFCURVE",
"757 1459 CURVE",
"745 1470 OFFCURVE",
"725 1474 OFFCURVE",
"693 1474 CURVE SMOOTH",
"122 1474 LINE SMOOTH",
"66 1474 OFFCURVE",
"50 1462 OFFCURVE",
"50 1407 CURVE SMOOTH",
"50 1226 LINE",
"53 1195 OFFCURVE",
"72 1192 OFFCURVE",
"90 1186 CURVE SMOOTH",
"108 1180 OFFCURVE",
"125 1172 OFFCURVE",
"125 1135 CURVE SMOOTH",
"125 1013 LINE SMOOTH",
"126 969 OFFCURVE",
"145 954 OFFCURVE",
"190 951 CURVE",
"313 951 LINE SMOOTH",
"357 952 OFFCURVE",
"372 963 OFFCURVE",
"372 1018 CURVE SMOOTH",
"372 1095 LINE SMOOTH",
"372 1130 OFFCURVE",
"398 1157 OFFCURVE",
"433 1157 CURVE SMOOTH",
"468 1157 OFFCURVE",
"495 1130 OFFCURVE",
"495 1095 CURVE SMOOTH",
"495 -133 LINE SMOOTH"
);
}
);
width = 821;
}
);
note = pefinal;
unicode = 05E3;
},
{
glyphname = pe;
lastChange = "2017-07-29 14:52:11 +0000";
layers = (
{
layerId = "39211C88-9C10-4AFB-8159-811865CCF3A1";
paths = (
{
closed = 1;
nodes = (
"512 350 OFFCURVE",
"508 327 OFFCURVE",
"496 314 CURVE",
"483 301 OFFCURVE",
"460 297 OFFCURVE",
"421 297 CURVE SMOOTH",
"98 297 LINE SMOOTH",
"67 297 OFFCURVE",
"50 277 OFFCURVE",
"51 245 CURVE SMOOTH",
"51 49 LINE SMOOTH",
"51 20 OFFCURVE",
"67 1 OFFCURVE",
"96 0 CURVE SMOOTH",
"487 0 LINE SMOOTH",
"586 0 OFFCURVE",
"658 19 OFFCURVE",
"706 66 CURVE SMOOTH",
"754 113 OFFCURVE",
"778 184 OFFCURVE",
"781 291 CURVE SMOOTH",
"782 1390 LINE SMOOTH",
"782 1427 OFFCURVE",
"779 1448 OFFCURVE",
"767 1460 CURVE",
"755 1471 OFFCURVE",
"734 1474 OFFCURVE",
"698 1474 CURVE SMOOTH",
"103 1474 LINE SMOOTH",
"62 1474 OFFCURVE",
"53 1457 OFFCURVE",
"52 1418 CURVE SMOOTH",
"51 1243 LINE SMOOTH",
"51 1232 OFFCURVE",
"53 1225 OFFCURVE",
"56 1221 CURVE SMOOTH",
"63 1212 OFFCURVE",
"74 1209 OFFCURVE",
"86 1209 CURVE",
"91 1208 OFFCURVE",
"97 1207 OFFCURVE",
"102 1204 CURVE",
"113 1198 OFFCURVE",
"120 1185 OFFCURVE",
"120 1156 CURVE SMOOTH",
"120 889 LINE SMOOTH",
"119 850 OFFCURVE",
"126 822 OFFCURVE",
"173 822 CURVE SMOOTH",
"312 822 LINE",
"335 821 OFFCURVE",
"351 824 OFFCURVE",
"362 833 CURVE SMOOTH",
"373 842 OFFCURVE",
"378 860 OFFCURVE",
"378 889 CURVE SMOOTH",
"378 1111 LINE SMOOTH",
"378 1148 OFFCURVE",
"408 1178 OFFCURVE",
"445 1178 CURVE SMOOTH",
"482 1178 OFFCURVE",
"512 1148 OFFCURVE",
"512 1111 CURVE SMOOTH",
"512 386 LINE SMOOTH"
);
}
);
width = 832;
}
);
note = pe;
unicode = 05E4;
},
{
glyphname = tsadifinal;
lastChange = "2017-07-29 14:52:11 +0000";
layers = (
{
layerId = "39211C88-9C10-4AFB-8159-811865CCF3A1";
paths = (
{
closed = 1;
nodes = (
"522 886 OFFCURVE",
"510 878 OFFCURVE",
"481 878 CURVE SMOOTH",
"459 878 LINE",
"444 935 OFFCURVE",
"430 991 OFFCURVE",
"418 1045 CURVE SMOOTH",
"407 1090 OFFCURVE",
"398 1141 OFFCURVE",
"391 1188 CURVE SMOOTH",
"383 1235 OFFCURVE",
"378 1278 OFFCURVE",
"378 1311 CURVE SMOOTH",
"378 1407 LINE",
"375 1454 OFFCURVE",
"364 1473 OFFCURVE",
"317 1474 CURVE SMOOTH",
"97 1474 LINE SMOOTH",
"62 1474 OFFCURVE",
"51 1448 OFFCURVE",
"50 1421 CURVE",
"50 1287 LINE SMOOTH",
"50 1236 OFFCURVE",
"67 1218 OFFCURVE",
"91 1218 CURVE SMOOTH",
"115 1218 OFFCURVE",
"131 1215 OFFCURVE",
"142 1186 CURVE",
"272 604 LINE",
"272 -134 LINE SMOOTH",
"272 -181 OFFCURVE",
"287 -197 OFFCURVE",
"322 -197 CURVE SMOOTH",
"475 -197 LINE SMOOTH",
"511 -197 OFFCURVE",
"533 -181 OFFCURVE",
"533 -134 CURVE SMOOTH",
"533 549 LINE SMOOTH",
"533 589 OFFCURVE",
"536 613 OFFCURVE",
"549 626 CURVE SMOOTH",
"562 639 OFFCURVE",
"587 643 OFFCURVE",
"631 643 CURVE SMOOTH",
"711 643 OFFCURVE",
"759 691 OFFCURVE",
"774 764 CURVE",
"774 1397 LINE SMOOTH",
"774 1425 OFFCURVE",
"773 1445 OFFCURVE",
"765 1457 CURVE SMOOTH",
"757 1469 OFFCURVE",
"743 1474 OFFCURVE",
"715 1474 CURVE SMOOTH",
"516 1474 LINE SMOOTH",
"461 1474 OFFCURVE",
"448 1457 OFFCURVE",
"448 1402 CURVE SMOOTH",
"448 1263 LINE SMOOTH",
"448 1222 OFFCURVE",
"466 1210 OFFCURVE",
"485 1202 CURVE",
"504 1193 OFFCURVE",
"522 1188 OFFCURVE",
"522 1161 CURVE SMOOTH",
"522 929 LINE SMOOTH"
);
}
);
width = 824;
}
);
note = tsadifinal;
unicode = 05E5;
},
{
glyphname = tsadi;
lastChange = "2017-07-29 14:52:11 +0000";
layers = (
{
layerId = "39211C88-9C10-4AFB-8159-811865CCF3A1";
paths = (
{
closed = 1;
nodes = (
"501 891 OFFCURVE",
"496 886 OFFCURVE",
"487 886 CURVE SMOOTH",
"483 886 OFFCURVE",
"479 887 OFFCURVE",
"476 891 CURVE",
"386 1129 LINE",
"386 1410 LINE",
"383 1455 OFFCURVE",
"370 1474 OFFCURVE",
"330 1474 CURVE SMOOTH",
"101 1474 LINE SMOOTH",
"62 1474 OFFCURVE",
"50 1460 OFFCURVE",
"50 1421 CURVE SMOOTH",
"50 1248 LINE SMOOTH",
"50 1225 OFFCURVE",
"55 1195 OFFCURVE",
"80 1195 CURVE SMOOTH",
"131 1195 LINE SMOOTH",
"142 1195 OFFCURVE",
"147 1190 OFFCURVE",
"147 1179 CURVE SMOOTH",
"147 1007 LINE",
"483 350 LINE",
"496 313 OFFCURVE",
"490 289 OFFCURVE",
"450 289 CURVE SMOOTH",
"134 289 LINE SMOOTH",
"102 289 OFFCURVE",
"83 287 OFFCURVE",
"72 276 CURVE SMOOTH",
"61 265 OFFCURVE",
"58 248 OFFCURVE",
"58 216 CURVE SMOOTH",
"58 59 LINE SMOOTH",
"58 8 OFFCURVE",
"73 0 OFFCURVE",
"121 0 CURVE SMOOTH",
"737 0 LINE SMOOTH",
"784 0 OFFCURVE",
"799 11 OFFCURVE",
"799 59 CURVE SMOOTH",
"800 207 LINE SMOOTH",
"800 258 OFFCURVE",
"790 297 OFFCURVE",
"767 340 CURVE",
"632 630 LINE",
"593 698 OFFCURVE",
"601 740 OFFCURVE",
"677 740 CURVE SMOOTH",
"740 740 LINE SMOOTH",
"776 740 OFFCURVE",
"795 767 OFFCURVE",
"795 798 CURVE SMOOTH",
"795 1406 LINE SMOOTH",
"795 1453 OFFCURVE",
"779 1474 OFFCURVE",
"734 1474 CURVE SMOOTH",
"505 1474 LINE SMOOTH",
"462 1474 OFFCURVE",
"447 1455 OFFCURVE",
"447 1410 CURVE SMOOTH",
"447 1246 LINE SMOOTH",
"447 1229 OFFCURVE",
"450 1217 OFFCURVE",
"456 1210 CURVE SMOOTH",
"467 1197 OFFCURVE",
"481 1195 OFFCURVE",
"493 1192 CURVE",
"498 1190 OFFCURVE",
"501 1185 OFFCURVE",
"501 1178 CURVE SMOOTH",
"501 900 LINE SMOOTH"
);
}
);
width = 850;
}
);
note = tsadi;
unicode = 05E6;
},
{
glyphname = qof;
lastChange = "2017-07-29 14:52:11 +0000";
layers = (
{
layerId = "39211C88-9C10-4AFB-8159-811865CCF3A1";
paths = (
{
closed = 1;
nodes = (
"758 1425 OFFCURVE",
"757 1447 OFFCURVE",
"746 1460 CURVE",
"734 1472 OFFCURVE",
"713 1474 OFFCURVE",
"676 1474 CURVE SMOOTH",
"131 1474 LINE SMOOTH",
"96 1474 OFFCURVE",
"76 1471 OFFCURVE",
"65 1459 CURVE",
"53 1447 OFFCURVE",
"50 1425 OFFCURVE",
"50 1388 CURVE SMOOTH",
"50 1275 LINE SMOOTH",
"50 1248 OFFCURVE",
"52 1228 OFFCURVE",
"64 1215 CURVE",
"75 1202 OFFCURVE",
"95 1195 OFFCURVE",
"130 1195 CURVE SMOOTH",
"400 1195 LINE SMOOTH",
"448 1195 OFFCURVE",
"467 1177 OFFCURVE",
"467 1126 CURVE SMOOTH",
"467 345 LINE SMOOTH",
"467 331 OFFCURVE",
"465 321 OFFCURVE",
"462 314 CURVE",
"455 300 OFFCURVE",
"445 294 OFFCURVE",
"434 290 CURVE SMOOTH",
"428 288 OFFCURVE",
"423 285 OFFCURVE",
"418 281 CURVE SMOOTH",
"408 273 OFFCURVE",
"400 257 OFFCURVE",
"400 224 CURVE SMOOTH",
"400 67 LINE SMOOTH",
"400 24 OFFCURVE",
"428 11 OFFCURVE",
"488 11 CURVE SMOOTH",
"545 11 OFFCURVE",
"614 34 OFFCURVE",
"667 72 CURVE SMOOTH",
"719 110 OFFCURVE",
"758 163 OFFCURVE",
"758 224 CURVE SMOOTH",
"758 1385 LINE SMOOTH"
);
},
{
closed = 1;
nodes = (
"68 -176 OFFCURVE",
"79 -197 OFFCURVE",
"124 -197 CURVE SMOOTH",
"278 -197 LINE SMOOTH",
"313 -197 OFFCURVE",
"326 -176 OFFCURVE",
"326 -141 CURVE SMOOTH",
"326 861 LINE SMOOTH",
"326 889 OFFCURVE",
"308 904 OFFCURVE",
"279 904 CURVE SMOOTH",
"111 904 LINE SMOOTH",
"84 904 OFFCURVE",
"68 885 OFFCURVE",
"68 861 CURVE SMOOTH",
"68 -143 LINE SMOOTH"
);
}
);
width = 808;
}
);
note = qof;
unicode = 05E7;
},
{
glyphname = resh;
lastChange = "2017-07-29 14:52:11 +0000";
layers = (
{
layerId = "39211C88-9C10-4AFB-8159-811865CCF3A1";
paths = (
{
closed = 1;
nodes = (
"398 20 OFFCURVE",
"429 0 OFFCURVE",
"461 0 CURVE SMOOTH",
"602 0 LINE SMOOTH",
"641 0 OFFCURVE",
"664 16 OFFCURVE",
"664 61 CURVE SMOOTH",
"664 1408 LINE SMOOTH",
"664 1463 OFFCURVE",
"654 1474 OFFCURVE",
"603 1474 CURVE SMOOTH",
"109 1474 LINE SMOOTH",
"70 1474 OFFCURVE",
"50 1443 OFFCURVE",
"50 1411 CURVE SMOOTH",
"50 1257 LINE SMOOTH",
"50 1218 OFFCURVE",
"66 1195 OFFCURVE",
"111 1195 CURVE SMOOTH",
"329 1195 LINE SMOOTH",
"381 1195 OFFCURVE",
"398 1170 OFFCURVE",
"398 1115 CURVE SMOOTH",
"398 59 LINE SMOOTH"
);
}
);
width = 714;
}
);
note = resh;
unicode = 05E8;
},
{
glyphname = shin;
lastChange = "2017-07-29 14:52:11 +0000";
layers = (
{
layerId = "39211C88-9C10-4AFB-8159-811865CCF3A1";
paths = (
{
closed = 1;
nodes = (
"921 0 OFFCURVE",
"967 21 OFFCURVE",
"1000 54 CURVE SMOOTH",
"1033 87 OFFCURVE",
"1054 133 OFFCURVE",
"1054 184 CURVE SMOOTH",
"1054 1408 LINE SMOOTH",
"1054 1463 OFFCURVE",
"1044 1474 OFFCURVE",
"993 1474 CURVE SMOOTH",
"820 1474 LINE SMOOTH",
"781 1474 OFFCURVE",
"761 1443 OFFCURVE",
"761 1411 CURVE SMOOTH",
"761 1237 LINE SMOOTH",
"761 1211 OFFCURVE",
"764 1194 OFFCURVE",
"769 1185 CURVE SMOOTH",
"774 1176 OFFCURVE",
"780 1169 OFFCURVE",
"787 1164 CURVE",
"793 1159 OFFCURVE",
"799 1152 OFFCURVE",
"804 1144 CURVE",
"809 1135 OFFCURVE",
"812 1119 OFFCURVE",
"812 1095 CURVE SMOOTH",
"812 337 LINE SMOOTH",
"812 302 OFFCURVE",
"785 276 OFFCURVE",
"750 276 CURVE SMOOTH",
"715 276 OFFCURVE",
"689 302 OFFCURVE",
"689 337 CURVE SMOOTH",
"689 1408 LINE SMOOTH",
"689 1463 OFFCURVE",
"679 1474 OFFCURVE",
"628 1474 CURVE SMOOTH",
"455 1474 LINE SMOOTH",
"416 1474 OFFCURVE",
"396 1443 OFFCURVE",
"396 1411 CURVE SMOOTH",
"396 1237 LINE SMOOTH",
"396 1211 OFFCURVE",
"399 1194 OFFCURVE",
"404 1185 CURVE SMOOTH",
"409 1176 OFFCURVE",
"415 1169 OFFCURVE",
"422 1164 CURVE",
"428 1159 OFFCURVE",
"434 1152 OFFCURVE",
"439 1144 CURVE",
"444 1135 OFFCURVE",
"447 1119 OFFCURVE",
"447 1095 CURVE SMOOTH",
"447 319 LINE SMOOTH",
"447 290 OFFCURVE",
"424 267 OFFCURVE",
"395 267 CURVE SMOOTH",
"366 267 OFFCURVE",
"343 290 OFFCURVE",
"343 319 CURVE SMOOTH",
"343 1408 LINE SMOOTH",
"343 1463 OFFCURVE",
"333 1474 OFFCURVE",
"282 1474 CURVE SMOOTH",
"109 1474 LINE SMOOTH",
"70 1474 OFFCURVE",
"50 1443 OFFCURVE",
"50 1411 CURVE SMOOTH",
"50 1237 LINE SMOOTH",
"50 1211 OFFCURVE",
"53 1194 OFFCURVE",
"58 1185 CURVE SMOOTH",
"63 1176 OFFCURVE",
"69 1169 OFFCURVE",
"76 1164 CURVE",
"82 1159 OFFCURVE",
"88 1152 OFFCURVE",
"93 1144 CURVE",
"98 1135 OFFCURVE",
"101 1119 OFFCURVE",
"101 1095 CURVE SMOOTH",
"101 82 LINE SMOOTH",
"101 19 OFFCURVE",
"117 0 OFFCURVE",
"176 0 CURVE SMOOTH",
"870 0 LINE SMOOTH"
);
}
);
width = 1104;
}
);
note = shin;
unicode = 05E9;
},
{
glyphname = tav;
lastChange = "2017-07-29 14:52:11 +0000";
layers = (
{
layerId = "39211C88-9C10-4AFB-8159-811865CCF3A1";
paths = (
{
closed = 1;
nodes = (
"793 1436 OFFCURVE",
"766 1474 OFFCURVE",
"706 1474 CURVE SMOOTH",
"117 1474 LINE SMOOTH",
"77 1474 OFFCURVE",
"50 1438 OFFCURVE",
"50 1403 CURVE SMOOTH",
"50 1236 LINE SMOOTH",
"50 1211 OFFCURVE",
"64 1195 OFFCURVE",
"92 1188 CURVE SMOOTH",
"120 1181 OFFCURVE",
"136 1174 OFFCURVE",
"142 1163 CURVE SMOOTH",
"148 1152 OFFCURVE",
"143 1137 OFFCURVE",
"130 1113 CURVE SMOOTH",
"95 1046 OFFCURVE",
"100 978 OFFCURVE",
"107 909 CURVE SMOOTH",
"165 349 LINE SMOOTH",
"169 306 OFFCURVE",
"161 297 OFFCURVE",
"118 297 CURVE SMOOTH",
"87 297 OFFCURVE",
"74 270 OFFCURVE",
"74 238 CURVE SMOOTH",
"75 50 LINE SMOOTH",
"76 9 OFFCURVE",
"89 0 OFFCURVE",
"132 0 CURVE SMOOTH",
"386 0 LINE SMOOTH",
"423 0 OFFCURVE",
"436 13 OFFCURVE",
"436 50 CURVE SMOOTH",
"436 67 OFFCURVE",
"436 87 OFFCURVE",
"437 110 CURVE",
"437 132 OFFCURVE",
"437 155 OFFCURVE",
"437 180 CURVE",
"436 229 OFFCURVE",
"434 282 OFFCURVE",
"430 327 CURVE SMOOTH",
"419 433 OFFCURVE",
"406 540 OFFCURVE",
"392 647 CURVE SMOOTH",
"378 754 OFFCURVE",
"364 860 OFFCURVE",
"351 967 CURVE SMOOTH",
"347 1000 OFFCURVE",
"352 1036 OFFCURVE",
"364 1069 CURVE SMOOTH",
"375 1102 OFFCURVE",
"390 1134 OFFCURVE",
"406 1162 CURVE",
"419 1183 OFFCURVE",
"447 1192 OFFCURVE",
"472 1186 CURVE SMOOTH",
"496 1180 OFFCURVE",
"517 1160 OFFCURVE",
"517 1127 CURVE SMOOTH",
"517 53 LINE SMOOTH",
"517 22 OFFCURVE",
"534 3 OFFCURVE",
"570 0 CURVE",
"737 0 LINE SMOOTH",
"776 0 OFFCURVE",
"793 23 OFFCURVE",
"793 60 CURVE SMOOTH",
"793 1388 LINE SMOOTH"
);
}
);
width = 843;
}
);
note = tav;
unicode = 05EA;
},
{
glyphname = zero;
lastChange = "2017-07-29 14:52:11 +0000";
layers = (
{
layerId = "39211C88-9C10-4AFB-8159-811865CCF3A1";
paths = (
{
closed = 1;
nodes = (
"50 135 OFFCURVE",
"70 90 OFFCURVE",
"99 55 CURVE SMOOTH",
"128 20 OFFCURVE",
"169 -3 OFFCURVE",
"209 -3 CURVE SMOOTH",
"434 -3 LINE SMOOTH",
"483 -3 OFFCURVE",
"527 20 OFFCURVE",
"559 55 CURVE SMOOTH",
"591 90 OFFCURVE",
"610 135 OFFCURVE",
"610 179 CURVE SMOOTH",
"610 1293 LINE SMOOTH",
"610 1337 OFFCURVE",
"591 1382 OFFCURVE",
"559 1417 CURVE SMOOTH",
"527 1452 OFFCURVE",
"483 1475 OFFCURVE",
"434 1475 CURVE SMOOTH",
"209 1475 LINE SMOOTH",
"169 1475 OFFCURVE",
"128 1452 OFFCURVE",
"99 1417 CURVE SMOOTH",
"70 1382 OFFCURVE",
"50 1337 OFFCURVE",
"50 1293 CURVE SMOOTH",
"50 179 LINE SMOOTH"
);
},
{
closed = 1;
nodes = (
"274 1227 OFFCURVE",
"297 1252 OFFCURVE",
"326 1252 CURVE SMOOTH",
"355 1252 OFFCURVE",
"379 1227 OFFCURVE",
"379 1198 CURVE SMOOTH",
"379 280 LINE SMOOTH",
"379 251 OFFCURVE",
"355 226 OFFCURVE",
"326 226 CURVE SMOOTH",
"297 226 OFFCURVE",
"274 251 OFFCURVE",
"274 280 CURVE SMOOTH",
"274 1198 LINE SMOOTH"
);
}
);
width = 660;
}
);
note = zero;
unicode = 0030;
},
{
glyphname = one;
lastChange = "2017-07-29 14:52:11 +0000";
layers = (
{
layerId = "39211C88-9C10-4AFB-8159-811865CCF3A1";
paths = (
{
closed = 1;
nodes = (
"50 1000 LINE",
"206 1124 LINE",
"203 0 LINE",
"449 0 LINE",
"449 1474 LINE",
"219 1474 LINE",
"50 1299 LINE"
);
}
);
width = 499;
}
);
note = one;
unicode = 0031;
},
{
glyphname = two;
lastChange = "2017-07-29 14:52:11 +0000";
layers = (
{
layerId = "39211C88-9C10-4AFB-8159-811865CCF3A1";
paths = (
{
closed = 1;
nodes = (
"274 1192 OFFCURVE",
"296 1215 OFFCURVE",
"327 1215 CURVE SMOOTH",
"358 1215 OFFCURVE",
"381 1192 OFFCURVE",
"381 1161 CURVE SMOOTH",
"381 1104 LINE SMOOTH",
"381 1045 OFFCURVE",
"365 984 OFFCURVE",
"340 928 CURVE SMOOTH",
"315 871 OFFCURVE",
"279 819 OFFCURVE",
"240 779 CURVE SMOOTH",
"200 736 OFFCURVE",
"161 679 OFFCURVE",
"132 614 CURVE SMOOTH",
"103 549 OFFCURVE",
"84 476 OFFCURVE",
"84 405 CURVE SMOOTH",
"84 226 LINE",
"84 -2 LINE",
"621 -2 LINE",
"621 255 LINE",
"333 255 LINE",
"333 405 LINE SMOOTH",
"333 446 OFFCURVE",
"345 485 OFFCURVE",
"368 529 CURVE SMOOTH",
"391 572 OFFCURVE",
"423 619 OFFCURVE",
"464 678 CURVE SMOOTH",
"496 725 OFFCURVE",
"541 791 OFFCURVE",
"577 867 CURVE SMOOTH",
"613 942 OFFCURVE",
"642 1025 OFFCURVE",
"642 1104 CURVE SMOOTH",
"642 1299 LINE SMOOTH",
"642 1336 OFFCURVE",
"616 1380 OFFCURVE",
"578 1415 CURVE SMOOTH",
"540 1450 OFFCURVE",
"492 1474 OFFCURVE",
"448 1474 CURVE SMOOTH",
"239 1474 LINE SMOOTH",
"191 1474 OFFCURVE",
"144 1450 OFFCURVE",
"109 1415 CURVE SMOOTH",
"73 1380 OFFCURVE",
"50 1336 OFFCURVE",
"50 1299 CURVE SMOOTH",
"50 1070 LINE",
"274 1070 LINE",
"274 1161 LINE SMOOTH"
);
}
);
width = 692;
}
);
note = two;
unicode = 0032;
},
{
glyphname = three;
lastChange = "2017-07-29 14:52:11 +0000";
layers = (
{
layerId = "39211C88-9C10-4AFB-8159-811865CCF3A1";
paths = (
{
closed = 1;
nodes = (
"50 611 LINE",
"50 180 LINE SMOOTH",
"50 136 OFFCURVE",
"75 91 OFFCURVE",
"111 57 CURVE SMOOTH",
"146 23 OFFCURVE",
"192 -1 OFFCURVE",
"232 -1 CURVE SMOOTH",
"467 -1 LINE SMOOTH",
"514 -1 OFFCURVE",
"555 23 OFFCURVE",
"584 57 CURVE SMOOTH",
"612 91 OFFCURVE",
"629 136 OFFCURVE",
"629 180 CURVE SMOOTH",
"629 701 LINE SMOOTH",
"629 749 OFFCURVE",
"593 785 OFFCURVE",
"533 792 CURVE",
"562 796 OFFCURVE",
"587 806 OFFCURVE",
"604 830 CURVE SMOOTH",
"620 853 OFFCURVE",
"629 889 OFFCURVE",
"629 944 CURVE SMOOTH",
"629 1299 LINE SMOOTH",
"629 1336 OFFCURVE",
"612 1380 OFFCURVE",
"584 1415 CURVE SMOOTH",
"555 1450 OFFCURVE",
"514 1474 OFFCURVE",
"467 1474 CURVE SMOOTH",
"232 1474 LINE SMOOTH",
"192 1474 OFFCURVE",
"146 1450 OFFCURVE",
"111 1415 CURVE SMOOTH",
"75 1380 OFFCURVE",
"50 1336 OFFCURVE",
"50 1299 CURVE SMOOTH",
"50 1020 LINE",
"284 1020 LINE",
"284 1161 LINE SMOOTH",
"284 1190 OFFCURVE",
"307 1215 OFFCURVE",
"336 1215 CURVE SMOOTH",
"365 1215 OFFCURVE",
"389 1190 OFFCURVE",
"389 1161 CURVE SMOOTH",
"389 1011 LINE SMOOTH",
"389 995 OFFCURVE",
"379 977 OFFCURVE",
"361 962 CURVE SMOOTH",
"343 947 OFFCURVE",
"316 936 OFFCURVE",
"284 936 CURVE",
"284 792 LINE",
"284 709 LINE",
"304 709 OFFCURVE",
"331 704 OFFCURVE",
"352 696 CURVE",
"372 687 OFFCURVE",
"389 675 OFFCURVE",
"389 659 CURVE SMOOTH",
"389 321 LINE SMOOTH",
"389 292 OFFCURVE",
"365 267 OFFCURVE",
"336 267 CURVE SMOOTH",
"307 267 OFFCURVE",
"284 292 OFFCURVE",
"284 321 CURVE SMOOTH",
"284 611 LINE"
);
}
);
width = 679;
}
);
note = three;
unicode = 0033;
},
{
glyphname = four;
lastChange = "2017-07-29 14:52:11 +0000";
layers = (
{
layerId = "39211C88-9C10-4AFB-8159-811865CCF3A1";
paths = (
{
closed = 1;
nodes = (
"356 1474 LINE",
"349 1467 OFFCURVE",
"337 1452 OFFCURVE",
"320 1431 CURVE SMOOTH",
"303 1410 OFFCURVE",
"283 1381 OFFCURVE",
"261 1344 CURVE SMOOTH",
"216 1271 OFFCURVE",
"165 1167 OFFCURVE",
"125 1029 CURVE SMOOTH",
"84 891 OFFCURVE",
"53 718 OFFCURVE",
"50 509 CURVE SMOOTH",
"50 300 LINE",
"378 300 LINE",
"378 -3 LINE",
"619 -3 LINE",
"619 300 LINE",
"663 300 LINE",
"663 509 LINE",
"619 509 LINE",
"619 1474 LINE"
);
},
{
closed = 1;
nodes = (
"286 753 OFFCURVE",
"322 945 OFFCURVE",
"378 1052 CURVE",
"378 509 LINE",
"275 509 LINE"
);
}
);
width = 713;
}
);
note = four;
unicode = 0034;
},
{
glyphname = five;
lastChange = "2017-07-29 14:52:11 +0000";
layers = (
{
layerId = "39211C88-9C10-4AFB-8159-811865CCF3A1";
paths = (
{
closed = 1;
nodes = (
"382 291 OFFCURVE",
"358 266 OFFCURVE",
"329 266 CURVE SMOOTH",
"300 266 OFFCURVE",
"277 291 OFFCURVE",
"277 320 CURVE SMOOTH",
"277 586 LINE",
"50 586 LINE",
"50 182 LINE SMOOTH",
"50 138 OFFCURVE",
"71 93 OFFCURVE",
"103 58 CURVE SMOOTH",
"135 23 OFFCURVE",
"179 0 OFFCURVE",
"223 0 CURVE SMOOTH",
"440 0 LINE SMOOTH",
"488 0 OFFCURVE",
"531 23 OFFCURVE",
"563 58 CURVE SMOOTH",
"594 93 OFFCURVE",
"613 138 OFFCURVE",
"613 182 CURVE SMOOTH",
"613 724 LINE SMOOTH",
"613 900 OFFCURVE",
"578 995 OFFCURVE",
"482 995 CURVE SMOOTH",
"402 995 OFFCURVE",
"342 968 OFFCURVE",
"311 955 CURVE",
"311 1215 LINE",
"613 1215 LINE",
"613 1474 LINE",
"50 1474 LINE",
"50 689 LINE",
"277 689 LINE",
"277 718 LINE SMOOTH",
"277 747 OFFCURVE",
"300 772 OFFCURVE",
"329 772 CURVE SMOOTH",
"358 772 OFFCURVE",
"382 747 OFFCURVE",
"382 718 CURVE SMOOTH",
"382 320 LINE SMOOTH"
);
}
);
width = 663;
}
);
note = five;
unicode = 0035;
},
{
glyphname = six;
lastChange = "2017-07-29 14:52:11 +0000";
layers = (
{
layerId = "39211C88-9C10-4AFB-8159-811865CCF3A1";
paths = (
{
closed = 1;
nodes = (
"610 1299 LINE SMOOTH",
"610 1336 OFFCURVE",
"591 1380 OFFCURVE",
"559 1415 CURVE SMOOTH",
"527 1450 OFFCURVE",
"483 1474 OFFCURVE",
"434 1474 CURVE SMOOTH",
"209 1474 LINE SMOOTH",
"169 1474 OFFCURVE",
"128 1450 OFFCURVE",
"99 1415 CURVE SMOOTH",
"70 1380 OFFCURVE",
"50 1336 OFFCURVE",
"50 1299 CURVE SMOOTH",
"50 179 LINE SMOOTH",
"50 135 OFFCURVE",
"70 90 OFFCURVE",
"99 55 CURVE SMOOTH",
"128 20 OFFCURVE",
"169 -3 OFFCURVE",
"209 -3 CURVE SMOOTH",
"434 -3 LINE SMOOTH",
"483 -3 OFFCURVE",
"527 20 OFFCURVE",
"559 55 CURVE SMOOTH",
"591 90 OFFCURVE",
"610 135 OFFCURVE",
"610 179 CURVE SMOOTH",
"610 719 LINE SMOOTH",
"610 780 OFFCURVE",
"599 844 OFFCURVE",
"575 893 CURVE SMOOTH",
"551 941 OFFCURVE",
"512 974 OFFCURVE",
"459 974 CURVE SMOOTH",
"430 974 OFFCURVE",
"405 973 OFFCURVE",
"384 971 CURVE SMOOTH",
"340 966 OFFCURVE",
"308 961 OFFCURVE",
"283 953 CURVE",
"283 1214 LINE SMOOTH",
"283 1231 OFFCURVE",
"301 1251 OFFCURVE",
"338 1251 CURVE SMOOTH",
"353 1251 OFFCURVE",
"373 1231 OFFCURVE",
"373 1214 CURVE SMOOTH",
"373 1123 LINE",
"610 1123 LINE"
);
},
{
closed = 1;
nodes = (
"274 747 OFFCURVE",
"297 772 OFFCURVE",
"326 772 CURVE SMOOTH",
"355 772 OFFCURVE",
"379 747 OFFCURVE",
"379 718 CURVE SMOOTH",
"379 280 LINE SMOOTH",
"379 251 OFFCURVE",
"355 226 OFFCURVE",
"326 226 CURVE SMOOTH",
"297 226 OFFCURVE",
"274 251 OFFCURVE",
"274 280 CURVE SMOOTH",
"274 718 LINE SMOOTH"
);
}
);
width = 660;
}
);
note = six;
unicode = 0036;
},
{
glyphname = seven;
lastChange = "2017-07-29 14:52:11 +0000";
layers = (
{
layerId = "39211C88-9C10-4AFB-8159-811865CCF3A1";
paths = (
{
closed = 1;
nodes = (
"50 1473 LINE",
"50 1214 LINE",
"347 1214 LINE",
"336 1173 OFFCURVE",
"321 1125 OFFCURVE",
"304 1068 CURVE SMOOTH",
"287 1011 OFFCURVE",
"268 950 OFFCURVE",
"249 883 CURVE SMOOTH",
"210 749 OFFCURVE",
"171 596 OFFCURVE",
"140 443 CURVE SMOOTH",
"108 290 OFFCURVE",
"87 135 OFFCURVE",
"87 -2 CURVE",
"350 -2 LINE",
"350 68 OFFCURVE",
"356 144 OFFCURVE",
"368 226 CURVE SMOOTH",
"392 390 OFFCURVE",
"430 562 OFFCURVE",
"475 726 CURVE SMOOTH",
"519 890 OFFCURVE",
"563 1032 OFFCURVE",
"596 1136 CURVE SMOOTH",
"613 1187 OFFCURVE",
"625 1225 OFFCURVE",
"632 1250 CURVE",
"632 1473 LINE"
);
}
);
width = 682;
}
);
note = seven;
unicode = 0037;
},
{
glyphname = eight;
lastChange = "2017-07-29 14:52:11 +0000";
layers = (
{
layerId = "39211C88-9C10-4AFB-8159-811865CCF3A1";
paths = (
{
closed = 1;
nodes = (
"179 1474 OFFCURVE",
"133 1450 OFFCURVE",
"101 1415 CURVE SMOOTH",
"69 1380 OFFCURVE",
"50 1336 OFFCURVE",
"50 1299 CURVE SMOOTH",
"50 953 LINE SMOOTH",
"50 842 OFFCURVE",
"94 801 OFFCURVE",
"166 801 CURVE",
"91 801 OFFCURVE",
"50 758 OFFCURVE",
"50 710 CURVE SMOOTH",
"50 179 LINE SMOOTH",
"50 135 OFFCURVE",
"69 90 OFFCURVE",
"101 55 CURVE SMOOTH",
"133 20 OFFCURVE",
"179 -3 OFFCURVE",
"232 -3 CURVE SMOOTH",
"346 -3 LINE",
"475 -3 LINE SMOOTH",
"527 -3 OFFCURVE",
"571 20 OFFCURVE",
"601 55 CURVE SMOOTH",
"631 90 OFFCURVE",
"647 135 OFFCURVE",
"647 179 CURVE SMOOTH",
"647 710 LINE SMOOTH",
"647 734 OFFCURVE",
"636 757 OFFCURVE",
"619 774 CURVE SMOOTH",
"602 790 OFFCURVE",
"577 801 OFFCURVE",
"549 801 CURVE",
"608 801 OFFCURVE",
"647 842 OFFCURVE",
"647 953 CURVE SMOOTH",
"647 1299 LINE SMOOTH",
"647 1336 OFFCURVE",
"631 1380 OFFCURVE",
"601 1415 CURVE SMOOTH",
"571 1450 OFFCURVE",
"527 1474 OFFCURVE",
"475 1474 CURVE SMOOTH",
"232 1474 LINE SMOOTH"
);
},
{
closed = 1;
nodes = (
"283 727 OFFCURVE",
"306 752 OFFCURVE",
"335 752 CURVE SMOOTH",
"364 752 OFFCURVE",
"388 727 OFFCURVE",
"388 698 CURVE SMOOTH",
"388 280 LINE SMOOTH",
"388 251 OFFCURVE",
"364 226 OFFCURVE",
"335 226 CURVE SMOOTH",
"306 226 OFFCURVE",
"283 251 OFFCURVE",
"283 280 CURVE SMOOTH",
"283 698 LINE SMOOTH"
);
},
{
closed = 1;
nodes = (
"283 1234 OFFCURVE",
"306 1259 OFFCURVE",
"335 1259 CURVE SMOOTH",
"364 1259 OFFCURVE",
"388 1234 OFFCURVE",
"388 1205 CURVE SMOOTH",
"388 981 LINE SMOOTH",
"388 952 OFFCURVE",
"364 927 OFFCURVE",
"335 927 CURVE SMOOTH",
"306 927 OFFCURVE",
"283 952 OFFCURVE",
"283 981 CURVE SMOOTH",
"283 1205 LINE SMOOTH"
);
}
);
width = 697;
}
);
note = eight;
unicode = 0038;
},
{
glyphname = nine;
lastChange = "2017-07-29 14:52:11 +0000";
layers = (
{
layerId = "39211C88-9C10-4AFB-8159-811865CCF3A1";
paths = (
{
closed = 1;
nodes = (
"50 172 LINE SMOOTH",
"50 133 OFFCURVE",
"69 91 OFFCURVE",
"101 56 CURVE SMOOTH",
"133 21 OFFCURVE",
"177 -3 OFFCURVE",
"226 -3 CURVE SMOOTH",
"451 -3 LINE SMOOTH",
"491 -3 OFFCURVE",
"532 21 OFFCURVE",
"561 56 CURVE SMOOTH",
"590 91 OFFCURVE",
"610 133 OFFCURVE",
"610 172 CURVE SMOOTH",
"610 1292 LINE SMOOTH",
"610 1336 OFFCURVE",
"590 1381 OFFCURVE",
"561 1416 CURVE SMOOTH",
"532 1451 OFFCURVE",
"491 1474 OFFCURVE",
"451 1474 CURVE SMOOTH",
"226 1474 LINE SMOOTH",
"177 1474 OFFCURVE",
"133 1451 OFFCURVE",
"101 1416 CURVE SMOOTH",
"69 1381 OFFCURVE",
"50 1336 OFFCURVE",
"50 1292 CURVE SMOOTH",
"50 882 LINE SMOOTH",
"50 821 OFFCURVE",
"61 757 OFFCURVE",
"85 709 CURVE SMOOTH",
"109 660 OFFCURVE",
"146 627 OFFCURVE",
"201 627 CURVE SMOOTH",
"230 627 OFFCURVE",
"255 628 OFFCURVE",
"277 630 CURVE SMOOTH",
"320 634 OFFCURVE",
"352 639 OFFCURVE",
"377 648 CURVE",
"377 257 LINE SMOOTH",
"377 240 OFFCURVE",
"359 220 OFFCURVE",
"322 220 CURVE SMOOTH",
"307 220 OFFCURVE",
"287 240 OFFCURVE",
"287 257 CURVE SMOOTH",
"287 478 LINE",
"50 478 LINE"
);
},
{
closed = 1;
nodes = (
"386 854 OFFCURVE",
"363 829 OFFCURVE",
"334 829 CURVE SMOOTH",
"305 829 OFFCURVE",
"281 854 OFFCURVE",
"281 883 CURVE SMOOTH",
"281 1191 LINE SMOOTH",
"281 1220 OFFCURVE",
"305 1245 OFFCURVE",
"334 1245 CURVE SMOOTH",
"363 1245 OFFCURVE",
"386 1220 OFFCURVE",
"386 1191 CURVE SMOOTH",
"386 883 LINE SMOOTH"
);
}
);
width = 660;
}
);
note = nine;
unicode = 0039;
},
{
glyphname = A;
lastChange = "2017-07-29 14:52:11 +0000";
layers = (
{
layerId = "39211C88-9C10-4AFB-8159-811865CCF3A1";
paths = (
{
closed = 1;
nodes = (
"675 21 OFFCURVE",
"708 0 OFFCURVE",
"743 0 CURVE SMOOTH",
"874 0 LINE SMOOTH",
"942 0 OFFCURVE",
"956 39 OFFCURVE",
"944 92 CURVE SMOOTH",
"656 1412 LINE SMOOTH",
"645 1461 OFFCURVE",
"615 1482 OFFCURVE",
"578 1482 CURVE SMOOTH",
"420 1482 LINE SMOOTH",
"383 1482 OFFCURVE",
"353 1461 OFFCURVE",
"342 1412 CURVE SMOOTH",
"54 92 LINE SMOOTH",
"42 39 OFFCURVE",
"57 0 OFFCURVE",
"124 0 CURVE SMOOTH",
"256 0 LINE SMOOTH",
"291 0 OFFCURVE",
"325 21 OFFCURVE",
"332 70 CURVE SMOOTH",
"358 230 LINE SMOOTH",
"367 279 OFFCURVE",
"397 296 OFFCURVE",
"432 296 CURVE SMOOTH",
"564 296 LINE SMOOTH",
"599 296 OFFCURVE",
"630 279 OFFCURVE",
"638 230 CURVE SMOOTH",
"667 70 LINE SMOOTH"
);
},
{
closed = 1;
nodes = (
"483 993 OFFCURVE",
"493 1000 OFFCURVE",
"503 1000 CURVE SMOOTH",
"513 1000 OFFCURVE",
"522 993 OFFCURVE",
"523 980 CURVE",
"541 822 LINE",
"574 627 LINE SMOOTH",
"582 584 OFFCURVE",
"572 549 OFFCURVE",
"517 549 CURVE SMOOTH",
"482 549 LINE SMOOTH",
"455 549 OFFCURVE",
"439 558 OFFCURVE",
"431 572 CURVE",
"422 586 OFFCURVE",
"421 606 OFFCURVE",
"424 627 CURVE",
"461 822 LINE",
"482 980 LINE"
);
}
);
width = 998;
}
);
note = A;
unicode = 0041;
},
{
glyphname = B;
lastChange = "2017-07-29 14:52:11 +0000";
layers = (
{
layerId = "39211C88-9C10-4AFB-8159-811865CCF3A1";
paths = (
{
closed = 1;
nodes = (
"354 277 OFFCURVE",
"327 302 OFFCURVE",
"327 333 CURVE SMOOTH",
"327 563 LINE SMOOTH",
"327 594 OFFCURVE",
"354 619 OFFCURVE",
"385 619 CURVE SMOOTH",
"471 619 LINE SMOOTH",
"544 619 OFFCURVE",
"580 580 OFFCURVE",
"580 501 CURVE SMOOTH",
"580 384 LINE SMOOTH",
"580 316 OFFCURVE",
"553 277 OFFCURVE",
"484 277 CURVE SMOOTH",
"385 277 LINE SMOOTH"
);
},
{
closed = 1;
nodes = (
"354 873 OFFCURVE",
"327 898 OFFCURVE",
"327 929 CURVE SMOOTH",
"327 1149 LINE SMOOTH",
"327 1180 OFFCURVE",
"354 1204 OFFCURVE",
"385 1204 CURVE SMOOTH",
"479 1204 LINE SMOOTH",
"546 1204 OFFCURVE",
"576 1166 OFFCURVE",
"576 1099 CURVE SMOOTH",
"576 988 LINE SMOOTH",
"576 911 OFFCURVE",
"540 873 OFFCURVE",
"467 873 CURVE SMOOTH",
"385 873 LINE SMOOTH"
);
},
{
closed = 1;
nodes = (
"698 751 OFFCURVE",
"698 762 OFFCURVE",
"724 773 CURVE SMOOTH",
"817 812 OFFCURVE",
"851 898 OFFCURVE",
"851 1007 CURVE SMOOTH",
"851 1169 LINE SMOOTH",
"851 1270 OFFCURVE",
"820 1348 OFFCURVE",
"764 1401 CURVE SMOOTH",
"707 1454 OFFCURVE",
"624 1482 OFFCURVE",
"523 1482 CURVE SMOOTH",
"108 1482 LINE SMOOTH",
"77 1482 OFFCURVE",
"50 1457 OFFCURVE",
"50 1426 CURVE SMOOTH",
"50 55 LINE SMOOTH",
"50 24 OFFCURVE",
"77 0 OFFCURVE",
"108 0 CURVE SMOOTH",
"529 0 LINE SMOOTH",
"629 0 OFFCURVE",
"712 27 OFFCURVE",
"769 79 CURVE SMOOTH",
"826 131 OFFCURVE",
"858 209 OFFCURVE",
"858 312 CURVE SMOOTH",
"858 506 LINE SMOOTH",
"858 614 OFFCURVE",
"821 697 OFFCURVE",
"724 740 CURVE SMOOTH"
);
}
);
width = 908;
}
);
note = B;
unicode = 0042;
},
{
glyphname = C;
lastChange = "2017-07-29 14:52:11 +0000";
layers = (
{
layerId = "39211C88-9C10-4AFB-8159-811865CCF3A1";
paths = (
{
closed = 1;
nodes = (
"632 960 OFFCURVE",
"656 933 OFFCURVE",
"687 933 CURVE SMOOTH",
"851 933 LINE SMOOTH",
"882 933 OFFCURVE",
"909 960 OFFCURVE",
"909 991 CURVE SMOOTH",
"909 1114 LINE SMOOTH",
"909 1225 OFFCURVE",
"868 1322 OFFCURVE",
"793 1391 CURVE SMOOTH",
"718 1459 OFFCURVE",
"610 1500 OFFCURVE",
"477 1500 CURVE SMOOTH",
"345 1500 OFFCURVE",
"237 1455 OFFCURVE",
"164 1383 CURVE SMOOTH",
"91 1310 OFFCURVE",
"50 1208 OFFCURVE",
"50 1093 CURVE SMOOTH",
"50 358 LINE SMOOTH",
"50 243 OFFCURVE",
"91 143 OFFCURVE",
"164 71 CURVE SMOOTH",
"237 -1 OFFCURVE",
"345 -45 OFFCURVE",
"477 -45 CURVE SMOOTH",
"610 -45 OFFCURVE",
"718 -4 OFFCURVE",
"793 64 CURVE SMOOTH",
"868 132 OFFCURVE",
"909 228 OFFCURVE",
"909 339 CURVE SMOOTH",
"909 463 LINE SMOOTH",
"909 494 OFFCURVE",
"882 520 OFFCURVE",
"851 520 CURVE SMOOTH",
"687 520 LINE SMOOTH",
"656 520 OFFCURVE",
"632 494 OFFCURVE",
"632 463 CURVE SMOOTH",
"632 378 LINE SMOOTH",
"632 291 OFFCURVE",
"582 230 OFFCURVE",
"482 230 CURVE SMOOTH",
"433 230 OFFCURVE",
"395 246 OFFCURVE",
"370 272 CURVE SMOOTH",
"345 298 OFFCURVE",
"332 333 OFFCURVE",
"332 374 CURVE SMOOTH",
"332 1085 LINE SMOOTH",
"332 1168 OFFCURVE",
"382 1227 OFFCURVE",
"482 1227 CURVE SMOOTH",
"582 1227 OFFCURVE",
"632 1167 OFFCURVE",
"632 1079 CURVE SMOOTH",
"632 991 LINE SMOOTH"
);
}
);
width = 959;
}
);
note = C;
unicode = 0043;
},
{
glyphname = D;
lastChange = "2017-07-29 14:52:11 +0000";
layers = (
{
layerId = "39211C88-9C10-4AFB-8159-811865CCF3A1";
paths = (
{
closed = 1;
nodes = (
"882 1198 OFFCURVE",
"846 1298 OFFCURVE",
"778 1369 CURVE SMOOTH",
"709 1440 OFFCURVE",
"608 1482 OFFCURVE",
"479 1482 CURVE SMOOTH",
"108 1482 LINE SMOOTH",
"77 1482 OFFCURVE",
"50 1457 OFFCURVE",
"50 1426 CURVE SMOOTH",
"50 55 LINE SMOOTH",
"50 24 OFFCURVE",
"77 0 OFFCURVE",
"108 0 CURVE SMOOTH",
"479 0 LINE SMOOTH",
"608 0 OFFCURVE",
"709 38 OFFCURVE",
"778 106 CURVE SMOOTH",
"846 173 OFFCURVE",
"882 269 OFFCURVE",
"882 388 CURVE SMOOTH",
"882 1081 LINE SMOOTH"
);
},
{
closed = 1;
nodes = (
"354 277 OFFCURVE",
"327 302 OFFCURVE",
"327 333 CURVE SMOOTH",
"327 1149 LINE SMOOTH",
"327 1180 OFFCURVE",
"354 1204 OFFCURVE",
"385 1204 CURVE SMOOTH",
"459 1204 LINE SMOOTH",
"563 1204 OFFCURVE",
"605 1149 OFFCURVE",
"605 1040 CURVE SMOOTH",
"605 440 LINE SMOOTH",
"605 332 OFFCURVE",
"563 277 OFFCURVE",
"459 277 CURVE SMOOTH",
"385 277 LINE SMOOTH"
);
}
);
width = 932;
}
);
note = D;
unicode = 0044;
},
{
glyphname = E;
lastChange = "2017-07-29 14:52:11 +0000";
layers = (
{
layerId = "39211C88-9C10-4AFB-8159-811865CCF3A1";
paths = (
{
closed = 1;
nodes = (
"601 631 OFFCURVE",
"625 657 OFFCURVE",
"625 688 CURVE SMOOTH",
"625 853 LINE SMOOTH",
"625 884 OFFCURVE",
"601 908 OFFCURVE",
"570 908 CURVE SMOOTH",
"385 908 LINE SMOOTH",
"354 908 OFFCURVE",
"327 935 OFFCURVE",
"327 966 CURVE SMOOTH",
"327 1149 LINE SMOOTH",
"327 1180 OFFCURVE",
"354 1204 OFFCURVE",
"385 1204 CURVE SMOOTH",
"703 1204 LINE SMOOTH",
"734 1204 OFFCURVE",
"759 1231 OFFCURVE",
"759 1262 CURVE SMOOTH",
"759 1426 LINE SMOOTH",
"759 1457 OFFCURVE",
"734 1482 OFFCURVE",
"703 1482 CURVE SMOOTH",
"108 1482 LINE SMOOTH",
"77 1482 OFFCURVE",
"50 1457 OFFCURVE",
"50 1426 CURVE SMOOTH",
"50 55 LINE SMOOTH",
"50 24 OFFCURVE",
"77 0 OFFCURVE",
"108 0 CURVE SMOOTH",
"703 0 LINE SMOOTH",
"734 0 OFFCURVE",
"759 24 OFFCURVE",
"759 55 CURVE SMOOTH",
"759 220 LINE SMOOTH",
"759 251 OFFCURVE",
"734 277 OFFCURVE",
"703 277 CURVE SMOOTH",
"385 277 LINE SMOOTH",
"354 277 OFFCURVE",
"327 302 OFFCURVE",
"327 333 CURVE SMOOTH",
"327 575 LINE SMOOTH",
"327 606 OFFCURVE",
"354 631 OFFCURVE",
"385 631 CURVE SMOOTH",
"570 631 LINE SMOOTH"
);
}
);
width = 809;
}
);
note = E;
unicode = 0045;
},
{
glyphname = F;
lastChange = "2017-07-29 14:52:11 +0000";
layers = (
{
layerId = "39211C88-9C10-4AFB-8159-811865CCF3A1";
paths = (
{
closed = 1;
nodes = (
"607 608 OFFCURVE",
"634 635 OFFCURVE",
"634 666 CURVE SMOOTH",
"634 830 LINE SMOOTH",
"634 861 OFFCURVE",
"607 886 OFFCURVE",
"576 886 CURVE SMOOTH",
"385 886 LINE SMOOTH",
"354 886 OFFCURVE",
"327 912 OFFCURVE",
"327 943 CURVE SMOOTH",
"327 1149 LINE SMOOTH",
"327 1180 OFFCURVE",
"354 1204 OFFCURVE",
"385 1204 CURVE SMOOTH",
"687 1204 LINE SMOOTH",
"718 1204 OFFCURVE",
"745 1231 OFFCURVE",
"745 1262 CURVE SMOOTH",
"745 1426 LINE SMOOTH",
"745 1457 OFFCURVE",
"718 1482 OFFCURVE",
"687 1482 CURVE SMOOTH",
"108 1482 LINE SMOOTH",
"77 1482 OFFCURVE",
"50 1457 OFFCURVE",
"50 1426 CURVE SMOOTH",
"50 55 LINE SMOOTH",
"50 24 OFFCURVE",
"77 0 OFFCURVE",
"108 0 CURVE SMOOTH",
"272 0 LINE SMOOTH",
"303 0 OFFCURVE",
"327 24 OFFCURVE",
"327 55 CURVE SMOOTH",
"327 553 LINE SMOOTH",
"327 584 OFFCURVE",
"354 608 OFFCURVE",
"385 608 CURVE SMOOTH",
"576 608 LINE SMOOTH"
);
}
);
width = 795;
}
);
note = F;
unicode = 0046;
},
{
glyphname = G;
lastChange = "2017-07-29 14:52:11 +0000";
layers = (
{
layerId = "39211C88-9C10-4AFB-8159-811865CCF3A1";
paths = (
{
closed = 1;
nodes = (
"733 8 OFFCURVE",
"749 -14 OFFCURVE",
"780 -14 CURVE SMOOTH",
"845 -14 LINE SMOOTH",
"876 -14 OFFCURVE",
"901 10 OFFCURVE",
"901 41 CURVE SMOOTH",
"901 699 LINE SMOOTH",
"901 730 OFFCURVE",
"876 756 OFFCURVE",
"845 756 CURVE SMOOTH",
"533 756 LINE SMOOTH",
"502 756 OFFCURVE",
"477 730 OFFCURVE",
"477 699 CURVE SMOOTH",
"477 559 LINE SMOOTH",
"477 528 OFFCURVE",
"502 502 OFFCURVE",
"533 502 CURVE SMOOTH",
"568 502 LINE SMOOTH",
"599 502 OFFCURVE",
"623 477 OFFCURVE",
"623 446 CURVE SMOOTH",
"623 364 LINE SMOOTH",
"623 328 OFFCURVE",
"611 293 OFFCURVE",
"587 268 CURVE SMOOTH",
"562 243 OFFCURVE",
"524 226 OFFCURVE",
"475 226 CURVE SMOOTH",
"427 226 OFFCURVE",
"390 243 OFFCURVE",
"365 268 CURVE SMOOTH",
"340 293 OFFCURVE",
"327 328 OFFCURVE",
"327 364 CURVE SMOOTH",
"327 1089 LINE SMOOTH",
"327 1125 OFFCURVE",
"339 1160 OFFCURVE",
"364 1185 CURVE SMOOTH",
"388 1210 OFFCURVE",
"424 1227 OFFCURVE",
"475 1227 CURVE SMOOTH",
"523 1227 OFFCURVE",
"558 1211 OFFCURVE",
"582 1187 CURVE SMOOTH",
"605 1163 OFFCURVE",
"615 1129 OFFCURVE",
"615 1093 CURVE SMOOTH",
"615 1015 LINE SMOOTH",
"615 984 OFFCURVE",
"642 960 OFFCURVE",
"673 960 CURVE SMOOTH",
"837 960 LINE SMOOTH",
"868 960 OFFCURVE",
"893 984 OFFCURVE",
"893 1015 CURVE SMOOTH",
"893 1114 LINE SMOOTH",
"893 1218 OFFCURVE",
"854 1314 OFFCURVE",
"782 1385 CURVE SMOOTH",
"710 1456 OFFCURVE",
"604 1500 OFFCURVE",
"471 1500 CURVE SMOOTH",
"338 1500 OFFCURVE",
"232 1454 OFFCURVE",
"160 1383 CURVE SMOOTH",
"88 1311 OFFCURVE",
"50 1214 OFFCURVE",
"50 1114 CURVE SMOOTH",
"50 339 LINE SMOOTH",
"50 234 OFFCURVE",
"83 137 OFFCURVE",
"147 68 CURVE SMOOTH",
"211 -1 OFFCURVE",
"305 -45 OFFCURVE",
"428 -45 CURVE SMOOTH",
"532 -45 OFFCURVE",
"620 -10 OFFCURVE",
"675 62 CURVE",
"687 81 OFFCURVE",
"707 78 OFFCURVE",
"714 62 CURVE",
"722 39 LINE SMOOTH"
);
}
);
width = 951;
}
);
note = G;
unicode = 0047;
},
{
glyphname = H;
lastChange = "2017-07-29 14:52:11 +0000";
layers = (
{
layerId = "39211C88-9C10-4AFB-8159-811865CCF3A1";
paths = (
{
closed = 1;
nodes = (
"327 578 OFFCURVE",
"354 604 OFFCURVE",
"385 604 CURVE SMOOTH",
"580 604 LINE SMOOTH",
"611 604 OFFCURVE",
"636 578 OFFCURVE",
"636 547 CURVE SMOOTH",
"636 55 LINE SMOOTH",
"636 24 OFFCURVE",
"662 0 OFFCURVE",
"693 0 CURVE SMOOTH",
"858 0 LINE SMOOTH",
"889 0 OFFCURVE",
"913 24 OFFCURVE",
"913 55 CURVE SMOOTH",
"913 1426 LINE SMOOTH",
"913 1457 OFFCURVE",
"889 1482 OFFCURVE",
"858 1482 CURVE SMOOTH",
"693 1482 LINE SMOOTH",
"662 1482 OFFCURVE",
"636 1457 OFFCURVE",
"636 1426 CURVE SMOOTH",
"636 937 LINE SMOOTH",
"636 906 OFFCURVE",
"611 882 OFFCURVE",
"580 882 CURVE SMOOTH",
"385 882 LINE SMOOTH",
"354 882 OFFCURVE",
"327 906 OFFCURVE",
"327 937 CURVE SMOOTH",
"327 1426 LINE SMOOTH",
"327 1457 OFFCURVE",
"303 1482 OFFCURVE",
"272 1482 CURVE SMOOTH",
"108 1482 LINE SMOOTH",
"77 1482 OFFCURVE",
"50 1457 OFFCURVE",
"50 1426 CURVE SMOOTH",
"50 55 LINE SMOOTH",
"50 24 OFFCURVE",
"77 0 OFFCURVE",
"108 0 CURVE SMOOTH",
"272 0 LINE SMOOTH",
"303 0 OFFCURVE",
"327 24 OFFCURVE",
"327 55 CURVE SMOOTH",
"327 547 LINE SMOOTH"
);
}
);
width = 963;
}
);
note = H;
unicode = 0048;
},
{
glyphname = I;
lastChange = "2017-07-29 14:52:11 +0000";
layers = (
{
layerId = "39211C88-9C10-4AFB-8159-811865CCF3A1";
paths = (
{
closed = 1;
nodes = (
"50 24 OFFCURVE",
"77 0 OFFCURVE",
"108 0 CURVE SMOOTH",
"272 0 LINE SMOOTH",
"303 0 OFFCURVE",
"327 24 OFFCURVE",
"327 55 CURVE SMOOTH",
"327 1426 LINE SMOOTH",
"327 1457 OFFCURVE",
"303 1482 OFFCURVE",
"272 1482 CURVE SMOOTH",
"108 1482 LINE SMOOTH",
"77 1482 OFFCURVE",
"50 1457 OFFCURVE",
"50 1426 CURVE SMOOTH",
"50 55 LINE SMOOTH"
);
}
);
width = 377;
}
);
note = I;
unicode = 0049;
},
{
glyphname = J;
lastChange = "2017-07-29 14:52:11 +0000";
layers = (
{
layerId = "39211C88-9C10-4AFB-8159-811865CCF3A1";
paths = (
{
closed = 1;
nodes = (
"854 1443 OFFCURVE",
"827 1467 OFFCURVE",
"796 1467 CURVE SMOOTH",
"632 1467 LINE SMOOTH",
"601 1467 OFFCURVE",
"576 1443 OFFCURVE",
"576 1412 CURVE SMOOTH",
"576 368 LINE SMOOTH",
"576 277 OFFCURVE",
"533 230 OFFCURVE",
"453 230 CURVE SMOOTH",
"373 230 OFFCURVE",
"327 277 OFFCURVE",
"327 368 CURVE SMOOTH",
"327 518 LINE SMOOTH",
"327 549 OFFCURVE",
"301 574 OFFCURVE",
"270 574 CURVE SMOOTH",
"105 574 LINE SMOOTH",
"74 574 OFFCURVE",
"50 549 OFFCURVE",
"50 518 CURVE SMOOTH",
"50 348 LINE SMOOTH",
"50 231 OFFCURVE",
"89 132 OFFCURVE",
"160 64 CURVE SMOOTH",
"231 -5 OFFCURVE",
"333 -45 OFFCURVE",
"457 -45 CURVE SMOOTH",
"584 -45 OFFCURVE",
"683 -5 OFFCURVE",
"751 64 CURVE SMOOTH",
"818 132 OFFCURVE",
"854 231 OFFCURVE",
"854 350 CURVE SMOOTH",
"854 1412 LINE SMOOTH"
);
}
);
width = 904;
}
);
note = J;
unicode = 004A;
},
{
glyphname = K;
lastChange = "2017-07-29 14:52:11 +0000";
layers = (
{
layerId = "39211C88-9C10-4AFB-8159-811865CCF3A1";
paths = (
{
closed = 1;
nodes = (
"620 829 OFFCURVE",
"617 844 OFFCURVE",
"618 857 CURVE",
"618 870 OFFCURVE",
"623 883 OFFCURVE",
"632 902 CURVE SMOOTH",
"847 1360 LINE SMOOTH",
"859 1388 OFFCURVE",
"867 1418 OFFCURVE",
"863 1442 CURVE SMOOTH",
"859 1466 OFFCURVE",
"843 1482 OFFCURVE",
"810 1482 CURVE SMOOTH",
"679 1482 LINE SMOOTH",
"636 1482 OFFCURVE",
"611 1450 OFFCURVE",
"586 1399 CURVE SMOOTH",
"371 939 LINE SMOOTH",
"364 923 OFFCURVE",
"353 918 OFFCURVE",
"344 921 CURVE SMOOTH",
"335 924 OFFCURVE",
"327 934 OFFCURVE",
"327 949 CURVE SMOOTH",
"327 1426 LINE SMOOTH",
"327 1457 OFFCURVE",
"303 1482 OFFCURVE",
"272 1482 CURVE SMOOTH",
"108 1482 LINE SMOOTH",
"77 1482 OFFCURVE",
"50 1457 OFFCURVE",
"50 1426 CURVE SMOOTH",
"50 55 LINE SMOOTH",
"50 24 OFFCURVE",
"77 0 OFFCURVE",
"108 0 CURVE SMOOTH",
"272 0 LINE SMOOTH",
"303 0 OFFCURVE",
"327 24 OFFCURVE",
"327 55 CURVE SMOOTH",
"327 353 LINE SMOOTH",
"327 370 OFFCURVE",
"327 384 OFFCURVE",
"328 394 CURVE",
"329 413 OFFCURVE",
"333 427 OFFCURVE",
"344 448 CURVE",
"349 459 OFFCURVE",
"357 474 OFFCURVE",
"366 493 CURVE SMOOTH",
"397 557 LINE",
"408 577 OFFCURVE",
"429 573 OFFCURVE",
"436 557 CURVE",
"601 82 LINE SMOOTH",
"617 33 OFFCURVE",
"654 0 OFFCURVE",
"695 0 CURVE SMOOTH",
"847 0 LINE SMOOTH",
"874 0 OFFCURVE",
"887 13 OFFCURVE",
"890 34 CURVE SMOOTH",
"893 55 OFFCURVE",
"885 86 OFFCURVE",
"872 121 CURVE SMOOTH",
"627 806 LINE"
);
}
);
width = 941;
}
);
note = K;
unicode = 004B;
},
{
glyphname = L;
lastChange = "2017-07-29 14:52:11 +0000";
layers = (
{
layerId = "39211C88-9C10-4AFB-8159-811865CCF3A1";
paths = (
{
closed = 1;
nodes = (
"354 277 OFFCURVE",
"327 302 OFFCURVE",
"327 333 CURVE SMOOTH",
"327 1426 LINE SMOOTH",
"327 1457 OFFCURVE",
"303 1482 OFFCURVE",
"272 1482 CURVE SMOOTH",
"108 1482 LINE SMOOTH",
"77 1482 OFFCURVE",
"50 1457 OFFCURVE",
"50 1426 CURVE SMOOTH",
"50 55 LINE SMOOTH",
"50 24 OFFCURVE",
"77 0 OFFCURVE",
"108 0 CURVE SMOOTH",
"685 0 LINE SMOOTH",
"716 0 OFFCURVE",
"740 24 OFFCURVE",
"740 55 CURVE SMOOTH",
"740 220 LINE SMOOTH",
"740 251 OFFCURVE",
"716 277 OFFCURVE",
"685 277 CURVE SMOOTH",
"385 277 LINE SMOOTH"
);
}
);
width = 790;
}
);
note = L;
unicode = 004C;
},
{
glyphname = M;
lastChange = "2017-07-29 14:52:11 +0000";
layers = (
{
layerId = "39211C88-9C10-4AFB-8159-811865CCF3A1";
paths = (
{
closed = 1;
nodes = (
"674 596 OFFCURVE",
"665 590 OFFCURVE",
"655 590 CURVE SMOOTH",
"645 590 OFFCURVE",
"635 596 OFFCURVE",
"634 608 CURVE",
"611 785 LINE",
"469 1412 LINE SMOOTH",
"458 1461 OFFCURVE",
"428 1482 OFFCURVE",
"391 1482 CURVE SMOOTH",
"108 1482 LINE SMOOTH",
"77 1482 OFFCURVE",
"50 1457 OFFCURVE",
"50 1426 CURVE SMOOTH",
"50 55 LINE SMOOTH",
"50 24 OFFCURVE",
"77 0 OFFCURVE",
"108 0 CURVE SMOOTH",
"272 0 LINE SMOOTH",
"303 0 OFFCURVE",
"327 24 OFFCURVE",
"327 55 CURVE SMOOTH",
"327 832 LINE SMOOTH",
"327 848 OFFCURVE",
"337 854 OFFCURVE",
"347 854 CURVE",
"357 853 OFFCURVE",
"366 843 OFFCURVE",
"369 824 CURVE SMOOTH",
"379 752 LINE",
"492 70 LINE SMOOTH",
"500 21 OFFCURVE",
"533 0 OFFCURVE",
"570 0 CURVE SMOOTH",
"708 0 LINE SMOOTH",
"745 0 OFFCURVE",
"777 21 OFFCURVE",
"786 70 CURVE SMOOTH",
"909 752 LINE",
"915 824 LINE",
"918 843 OFFCURVE",
"929 853 OFFCURVE",
"940 854 CURVE",
"951 854 OFFCURVE",
"960 848 OFFCURVE",
"960 832 CURVE SMOOTH",
"960 55 LINE SMOOTH",
"960 24 OFFCURVE",
"985 0 OFFCURVE",
"1016 0 CURVE SMOOTH",
"1180 0 LINE SMOOTH",
"1211 0 OFFCURVE",
"1238 24 OFFCURVE",
"1238 55 CURVE SMOOTH",
"1238 1426 LINE SMOOTH",
"1238 1457 OFFCURVE",
"1211 1482 OFFCURVE",
"1180 1482 CURVE SMOOTH",
"913 1482 LINE SMOOTH",
"878 1482 OFFCURVE",
"848 1461 OFFCURVE",
"837 1412 CURVE SMOOTH",
"697 785 LINE",
"675 608 LINE"
);
}
);
width = 1288;
}
);
note = M;
unicode = 004D;
},
{
glyphname = N;
lastChange = "2017-07-29 14:52:11 +0000";
layers = (
{
layerId = "39211C88-9C10-4AFB-8159-811865CCF3A1";
paths = (
{
closed = 1;
nodes = (
"685 686 OFFCURVE",
"656 686 OFFCURVE",
"640 721 CURVE",
"605 812 LINE",
"317 1416 LINE SMOOTH",
"294 1463 OFFCURVE",
"268 1482 OFFCURVE",
"233 1482 CURVE SMOOTH",
"105 1482 LINE SMOOTH",
"74 1482 OFFCURVE",
"50 1457 OFFCURVE",
"50 1426 CURVE SMOOTH",
"50 55 LINE SMOOTH",
"50 24 OFFCURVE",
"74 0 OFFCURVE",
"105 0 CURVE SMOOTH",
"270 0 LINE SMOOTH",
"301 0 OFFCURVE",
"327 24 OFFCURVE",
"327 55 CURVE SMOOTH",
"327 762 LINE SMOOTH",
"327 778 OFFCURVE",
"335 785 OFFCURVE",
"344 785 CURVE",
"352 784 OFFCURVE",
"363 775 OFFCURVE",
"371 758 CURVE",
"412 660 LINE",
"712 66 LINE SMOOTH",
"736 18 OFFCURVE",
"761 0 OFFCURVE",
"798 0 CURVE SMOOTH",
"905 0 LINE SMOOTH",
"936 0 OFFCURVE",
"962 24 OFFCURVE",
"962 55 CURVE SMOOTH",
"962 1426 LINE SMOOTH",
"962 1457 OFFCURVE",
"936 1482 OFFCURVE",
"905 1482 CURVE SMOOTH",
"740 1482 LINE SMOOTH",
"709 1482 OFFCURVE",
"685 1457 OFFCURVE",
"685 1426 CURVE SMOOTH",
"685 717 LINE SMOOTH"
);
}
);
width = 1012;
}
);
note = N;
unicode = 004E;
},
{
glyphname = O;
lastChange = "2017-07-29 14:52:11 +0000";
layers = (
{
layerId = "39211C88-9C10-4AFB-8159-811865CCF3A1";
paths = (
{
closed = 1;
nodes = (
"923 1215 OFFCURVE",
"882 1315 OFFCURVE",
"807 1387 CURVE SMOOTH",
"732 1458 OFFCURVE",
"624 1500 OFFCURVE",
"488 1500 CURVE SMOOTH",
"349 1500 OFFCURVE",
"241 1458 OFFCURVE",
"166 1387 CURVE SMOOTH",
"90 1315 OFFCURVE",
"50 1215 OFFCURVE",
"50 1098 CURVE SMOOTH",
"50 360 LINE SMOOTH",
"50 241 OFFCURVE",
"91 141 OFFCURVE",
"167 69 CURVE SMOOTH",
"242 -3 OFFCURVE",
"351 -45 OFFCURVE",
"488 -45 CURVE SMOOTH",
"624 -45 OFFCURVE",
"732 -3 OFFCURVE",
"807 69 CURVE SMOOTH",
"882 141 OFFCURVE",
"923 241 OFFCURVE",
"923 360 CURVE SMOOTH",
"923 1098 LINE SMOOTH"
);
},
{
closed = 1;
nodes = (
"644 286 OFFCURVE",
"591 226 OFFCURVE",
"488 226 CURVE SMOOTH",
"384 226 OFFCURVE",
"332 286 OFFCURVE",
"332 374 CURVE SMOOTH",
"332 1083 LINE SMOOTH",
"332 1171 OFFCURVE",
"384 1227 OFFCURVE",
"488 1227 CURVE SMOOTH",
"591 1227 OFFCURVE",
"644 1171 OFFCURVE",
"644 1083 CURVE SMOOTH",
"644 374 LINE SMOOTH"
);
}
);
width = 973;
}
);
note = O;
unicode = 004F;
},
{
glyphname = P;
lastChange = "2017-07-29 14:52:11 +0000";
layers = (
{
layerId = "39211C88-9C10-4AFB-8159-811865CCF3A1";
paths = (
{
closed = 1;
nodes = (
"354 810 OFFCURVE",
"327 834 OFFCURVE",
"327 865 CURVE SMOOTH",
"327 1149 LINE SMOOTH",
"327 1180 OFFCURVE",
"354 1204 OFFCURVE",
"385 1204 CURVE SMOOTH",
"479 1204 LINE SMOOTH",
"546 1204 OFFCURVE",
"576 1169 OFFCURVE",
"576 1093 CURVE SMOOTH",
"576 919 LINE SMOOTH",
"576 846 OFFCURVE",
"544 810 OFFCURVE",
"479 810 CURVE SMOOTH",
"385 810 LINE SMOOTH"
);
},
{
closed = 1;
nodes = (
"327 528 OFFCURVE",
"354 555 OFFCURVE",
"385 555 CURVE SMOOTH",
"519 555 LINE SMOOTH",
"623 555 OFFCURVE",
"707 585 OFFCURVE",
"765 642 CURVE SMOOTH",
"823 698 OFFCURVE",
"854 781 OFFCURVE",
"854 886 CURVE SMOOTH",
"854 1149 LINE SMOOTH",
"854 1254 OFFCURVE",
"823 1338 OFFCURVE",
"765 1395 CURVE SMOOTH",
"707 1451 OFFCURVE",
"623 1482 OFFCURVE",
"519 1482 CURVE SMOOTH",
"108 1482 LINE SMOOTH",
"77 1482 OFFCURVE",
"50 1457 OFFCURVE",
"50 1426 CURVE SMOOTH",
"50 55 LINE SMOOTH",
"50 24 OFFCURVE",
"77 0 OFFCURVE",
"108 0 CURVE SMOOTH",
"272 0 LINE SMOOTH",
"303 0 OFFCURVE",
"327 24 OFFCURVE",
"327 55 CURVE SMOOTH",
"327 497 LINE SMOOTH"
);
}
);
width = 904;
}
);
note = P;
unicode = 0050;
},
{
glyphname = Q;
lastChange = "2017-07-29 14:52:11 +0000";
layers = (
{
layerId = "39211C88-9C10-4AFB-8159-811865CCF3A1";
paths = (
{
closed = 1;
nodes = (
"832 -38 OFFCURVE",
"923 97 OFFCURVE",
"923 276 CURVE SMOOTH",
"923 1013 LINE SMOOTH",
"923 1130 OFFCURVE",
"882 1231 OFFCURVE",
"807 1303 CURVE SMOOTH",
"732 1374 OFFCURVE",
"624 1416 OFFCURVE",
"488 1416 CURVE SMOOTH",
"349 1416 OFFCURVE",
"241 1374 OFFCURVE",
"166 1303 CURVE SMOOTH",
"90 1231 OFFCURVE",
"50 1130 OFFCURVE",
"50 1013 CURVE SMOOTH",
"50 276 LINE SMOOTH",
"50 187 OFFCURVE",
"74 106 OFFCURVE",
"119 42 CURVE SMOOTH",
"164 -23 OFFCURVE",
"228 -72 OFFCURVE",
"311 -100 CURVE SMOOTH",
"342 -111 OFFCURVE",
"358 -129 OFFCURVE",
"358 -160 CURVE SMOOTH",
"358 -180 OFFCURVE",
"358 -220 OFFCURVE",
"373 -252 CURVE",
"388 -295 OFFCURVE",
"414 -312 OFFCURVE",
"449 -312 CURVE SMOOTH",
"590 -312 LINE SMOOTH",
"615 -312 OFFCURVE",
"629 -305 OFFCURVE",
"635 -293 CURVE",
"641 -282 OFFCURVE",
"639 -268 OFFCURVE",
"634 -252 CURVE",
"621 -220 OFFCURVE",
"621 -181 OFFCURVE",
"621 -158 CURVE SMOOTH",
"621 -127 OFFCURVE",
"640 -111 OFFCURVE",
"671 -98 CURVE"
);
},
{
closed = 1;
nodes = (
"644 202 OFFCURVE",
"591 142 OFFCURVE",
"488 142 CURVE SMOOTH",
"384 142 OFFCURVE",
"332 202 OFFCURVE",
"332 290 CURVE SMOOTH",
"332 999 LINE SMOOTH",
"332 1086 OFFCURVE",
"384 1143 OFFCURVE",
"488 1143 CURVE SMOOTH",
"591 1143 OFFCURVE",
"644 1086 OFFCURVE",
"644 999 CURVE SMOOTH",
"644 290 LINE SMOOTH"
);
}
);
width = 973;
}
);
note = Q;
unicode = 0051;
},
{
glyphname = R;
lastChange = "2017-07-29 14:52:11 +0000";
layers = (
{
layerId = "39211C88-9C10-4AFB-8159-811865CCF3A1";
paths = (
{
closed = 1;
nodes = (
"806 773 OFFCURVE",
"854 850 OFFCURVE",
"854 949 CURVE SMOOTH",
"854 1169 LINE SMOOTH",
"854 1270 OFFCURVE",
"822 1348 OFFCURVE",
"765 1401 CURVE SMOOTH",
"708 1454 OFFCURVE",
"624 1482 OFFCURVE",
"523 1482 CURVE SMOOTH",
"108 1482 LINE SMOOTH",
"77 1482 OFFCURVE",
"50 1457 OFFCURVE",
"50 1426 CURVE SMOOTH",
"50 55 LINE SMOOTH",
"50 24 OFFCURVE",
"77 0 OFFCURVE",
"108 0 CURVE SMOOTH",
"272 0 LINE SMOOTH",
"303 0 OFFCURVE",
"327 24 OFFCURVE",
"327 55 CURVE SMOOTH",
"327 549 LINE SMOOTH",
"327 580 OFFCURVE",
"354 606 OFFCURVE",
"385 606 CURVE SMOOTH",
"477 606 LINE SMOOTH",
"493 606 OFFCURVE",
"512 593 OFFCURVE",
"526 577 CURVE SMOOTH",
"540 560 OFFCURVE",
"549 540 OFFCURVE",
"549 524 CURVE SMOOTH",
"549 55 LINE SMOOTH",
"549 24 OFFCURVE",
"574 0 OFFCURVE",
"605 0 CURVE SMOOTH",
"769 0 LINE SMOOTH",
"800 0 OFFCURVE",
"827 24 OFFCURVE",
"827 55 CURVE SMOOTH",
"827 534 LINE SMOOTH",
"827 565 OFFCURVE",
"808 604 OFFCURVE",
"780 629 CURVE SMOOTH",
"716 688 LINE",
"697 703 OFFCURVE",
"689 723 OFFCURVE",
"714 734 CURVE SMOOTH"
);
},
{
closed = 1;
nodes = (
"354 875 OFFCURVE",
"327 902 OFFCURVE",
"327 933 CURVE SMOOTH",
"327 1149 LINE SMOOTH",
"327 1180 OFFCURVE",
"354 1204 OFFCURVE",
"385 1204 CURVE SMOOTH",
"479 1204 LINE SMOOTH",
"546 1204 OFFCURVE",
"576 1166 OFFCURVE",
"576 1099 CURVE SMOOTH",
"576 995 LINE SMOOTH",
"576 911 OFFCURVE",
"539 875 OFFCURVE",
"467 875 CURVE SMOOTH",
"385 875 LINE SMOOTH"
);
}
);
width = 904;
}
);
note = R;
unicode = 0052;
},
{
glyphname = S;
lastChange = "2017-07-29 14:52:11 +0000";
layers = (
{
layerId = "39211C88-9C10-4AFB-8159-811865CCF3A1";
paths = (
{
closed = 1;
nodes = (
"588 1048 OFFCURVE",
"613 1024 OFFCURVE",
"644 1024 CURVE SMOOTH",
"808 1024 LINE SMOOTH",
"839 1024 OFFCURVE",
"866 1048 OFFCURVE",
"866 1079 CURVE SMOOTH",
"866 1120 LINE SMOOTH",
"866 1231 OFFCURVE",
"826 1326 OFFCURVE",
"756 1394 CURVE SMOOTH",
"686 1461 OFFCURVE",
"586 1500 OFFCURVE",
"469 1500 CURVE SMOOTH",
"336 1500 OFFCURVE",
"233 1454 OFFCURVE",
"163 1382 CURVE SMOOTH",
"93 1309 OFFCURVE",
"56 1209 OFFCURVE",
"56 1104 CURVE SMOOTH",
"56 1051 OFFCURVE",
"66 1002 OFFCURVE",
"86 957 CURVE SMOOTH",
"125 865 OFFCURVE",
"190 788 OFFCURVE",
"266 722 CURVE SMOOTH",
"342 656 OFFCURVE",
"420 600 OFFCURVE",
"479 560 CURVE SMOOTH",
"508 540 OFFCURVE",
"533 521 OFFCURVE",
"553 502 CURVE SMOOTH",
"593 464 OFFCURVE",
"615 425 OFFCURVE",
"615 366 CURVE SMOOTH",
"615 275 OFFCURVE",
"566 230 OFFCURVE",
"467 230 CURVE SMOOTH",
"366 230 OFFCURVE",
"326 278 OFFCURVE",
"323 370 CURVE",
"323 384 LINE SMOOTH",
"323 415 OFFCURVE",
"297 440 OFFCURVE",
"266 440 CURVE SMOOTH",
"108 440 LINE SMOOTH",
"77 440 OFFCURVE",
"50 415 OFFCURVE",
"50 384 CURVE SMOOTH",
"50 337 LINE SMOOTH",
"50 222 OFFCURVE",
"92 127 OFFCURVE",
"167 60 CURVE SMOOTH",
"242 -7 OFFCURVE",
"348 -45 OFFCURVE",
"475 -45 CURVE SMOOTH",
"596 -45 OFFCURVE",
"701 -2 OFFCURVE",
"774 71 CURVE SMOOTH",
"847 144 OFFCURVE",
"890 245 OFFCURVE",
"890 364 CURVE SMOOTH",
"890 414 OFFCURVE",
"882 460 OFFCURVE",
"865 502 CURVE SMOOTH",
"832 585 OFFCURVE",
"773 657 OFFCURVE",
"695 724 CURVE SMOOTH",
"617 791 OFFCURVE",
"523 857 OFFCURVE",
"464 898 CURVE SMOOTH",
"434 919 OFFCURVE",
"410 938 OFFCURVE",
"391 957 CURVE SMOOTH",
"353 994 OFFCURVE",
"334 1033 OFFCURVE",
"334 1096 CURVE SMOOTH",
"334 1179 OFFCURVE",
"379 1229 OFFCURVE",
"455 1229 CURVE SMOOTH",
"539 1229 OFFCURVE",
"588 1171 OFFCURVE",
"588 1079 CURVE SMOOTH"
);
}
);
width = 940;
}
);
note = S;
unicode = 0053;
},
{
glyphname = T;
lastChange = "2017-07-29 14:52:11 +0000";
layers = (
{
layerId = "39211C88-9C10-4AFB-8159-811865CCF3A1";
paths = (
{
closed = 1;
nodes = (
"599 1182 OFFCURVE",
"627 1204 OFFCURVE",
"656 1204 CURVE SMOOTH",
"814 1204 LINE SMOOTH",
"845 1204 OFFCURVE",
"872 1231 OFFCURVE",
"872 1262 CURVE SMOOTH",
"872 1426 LINE SMOOTH",
"872 1457 OFFCURVE",
"845 1482 OFFCURVE",
"814 1482 CURVE SMOOTH",
"105 1482 LINE SMOOTH",
"74 1482 OFFCURVE",
"50 1457 OFFCURVE",
"50 1426 CURVE SMOOTH",
"50 1262 LINE SMOOTH",
"50 1231 OFFCURVE",
"74 1204 OFFCURVE",
"105 1204 CURVE SMOOTH",
"274 1204 LINE SMOOTH",
"297 1204 OFFCURVE",
"321 1180 OFFCURVE",
"321 1155 CURVE SMOOTH",
"321 55 LINE SMOOTH",
"321 24 OFFCURVE",
"348 0 OFFCURVE",
"379 0 CURVE SMOOTH",
"543 0 LINE SMOOTH",
"574 0 OFFCURVE",
"599 24 OFFCURVE",
"599 55 CURVE SMOOTH",
"599 1155 LINE SMOOTH"
);
}
);
width = 922;
}
);
note = T;
unicode = 0054;
},
{
glyphname = U;
lastChange = "2017-07-29 14:52:11 +0000";
layers = (
{
layerId = "39211C88-9C10-4AFB-8159-811865CCF3A1";
paths = (
{
closed = 1;
nodes = (
"882 1412 LINE SMOOTH",
"882 1443 OFFCURVE",
"858 1467 OFFCURVE",
"827 1467 CURVE SMOOTH",
"662 1467 LINE SMOOTH",
"631 1467 OFFCURVE",
"605 1443 OFFCURVE",
"605 1412 CURVE SMOOTH",
"605 364 LINE SMOOTH",
"605 277 OFFCURVE",
"558 230 OFFCURVE",
"465 230 CURVE SMOOTH",
"377 230 OFFCURVE",
"327 277 OFFCURVE",
"327 364 CURVE SMOOTH",
"327 1412 LINE SMOOTH",
"327 1443 OFFCURVE",
"303 1467 OFFCURVE",
"272 1467 CURVE SMOOTH",
"108 1467 LINE SMOOTH",
"77 1467 OFFCURVE",
"50 1443 OFFCURVE",
"50 1412 CURVE SMOOTH",
"50 329 LINE SMOOTH",
"50 218 OFFCURVE",
"94 126 OFFCURVE",
"168 60 CURVE SMOOTH",
"242 -6 OFFCURVE",
"345 -45 OFFCURVE",
"465 -45 CURVE SMOOTH",
"585 -45 OFFCURVE",
"690 -6 OFFCURVE",
"764 60 CURVE SMOOTH",
"838 126 OFFCURVE",
"882 218 OFFCURVE",
"882 329 CURVE SMOOTH"
);
}
);
width = 932;
}
);
note = U;
unicode = 0055;
},
{
glyphname = V;
lastChange = "2017-07-29 14:52:11 +0000";
layers = (
{
layerId = "39211C88-9C10-4AFB-8159-811865CCF3A1";
paths = (
{
closed = 1;
nodes = (
"519 559 LINE",
"518 547 OFFCURVE",
"508 540 OFFCURVE",
"498 540 CURVE SMOOTH",
"488 540 OFFCURVE",
"477 547 OFFCURVE",
"476 559 CURVE SMOOTH",
"457 723 LINE",
"332 1412 LINE SMOOTH",
"324 1461 OFFCURVE",
"291 1482 OFFCURVE",
"254 1482 CURVE SMOOTH",
"124 1482 LINE SMOOTH",
"56 1482 OFFCURVE",
"42 1444 OFFCURVE",
"54 1389 CURVE SMOOTH",
"342 70 LINE SMOOTH",
"353 21 OFFCURVE",
"383 0 OFFCURVE",
"418 0 CURVE SMOOTH",
"578 0 LINE SMOOTH",
"613 0 OFFCURVE",
"643 21 OFFCURVE",
"654 70 CURVE SMOOTH",
"942 1389 LINE",
"949 1416 OFFCURVE",
"949 1439 OFFCURVE",
"938 1456 CURVE SMOOTH",
"927 1472 OFFCURVE",
"907 1482 OFFCURVE",
"874 1482 CURVE SMOOTH",
"743 1482 LINE SMOOTH",
"706 1482 OFFCURVE",
"673 1461 OFFCURVE",
"665 1412 CURVE SMOOTH",
"539 723 LINE"
);
}
);
width = 997;
}
);
note = V;
unicode = 0056;
},
{
glyphname = W;
lastChange = "2017-07-29 14:52:11 +0000";
layers = (
{
layerId = "39211C88-9C10-4AFB-8159-811865CCF3A1";
paths = (
{
closed = 1;
nodes = (
"1160 0 OFFCURVE",
"1194 21 OFFCURVE",
"1201 70 CURVE SMOOTH",
"1291 836 LINE",
"1298 863 OFFCURVE",
"1299 896 OFFCURVE",
"1299 927 CURVE SMOOTH",
"1299 1426 LINE SMOOTH",
"1299 1457 OFFCURVE",
"1273 1482 OFFCURVE",
"1242 1482 CURVE SMOOTH",
"1077 1482 LINE SMOOTH",
"1046 1482 OFFCURVE",
"1022 1457 OFFCURVE",
"1022 1426 CURVE SMOOTH",
"993 462 LINE SMOOTH",
"993 449 OFFCURVE",
"985 442 OFFCURVE",
"977 442 CURVE SMOOTH",
"968 442 OFFCURVE",
"959 449 OFFCURVE",
"958 462 CURVE",
"835 1412 LINE SMOOTH",
"827 1461 OFFCURVE",
"794 1482 OFFCURVE",
"757 1482 CURVE SMOOTH",
"593 1482 LINE SMOOTH",
"558 1482 OFFCURVE",
"523 1461 OFFCURVE",
"516 1412 CURVE SMOOTH",
"393 462 LINE",
"390 449 OFFCURVE",
"382 442 OFFCURVE",
"373 442 CURVE SMOOTH",
"364 442 OFFCURVE",
"356 449 OFFCURVE",
"356 462 CURVE",
"327 1426 LINE",
"327 1457 OFFCURVE",
"303 1482 OFFCURVE",
"272 1482 CURVE SMOOTH",
"108 1482 LINE SMOOTH",
"77 1482 OFFCURVE",
"50 1457 OFFCURVE",
"50 1426 CURVE SMOOTH",
"50 927 LINE SMOOTH",
"50 896 OFFCURVE",
"54 863 OFFCURVE",
"58 836 CURVE SMOOTH",
"149 70 LINE",
"157 21 OFFCURVE",
"190 0 OFFCURVE",
"225 0 CURVE SMOOTH",
"496 0 LINE SMOOTH",
"531 0 OFFCURVE",
"563 21 OFFCURVE",
"570 70 CURVE SMOOTH",
"644 621 LINE",
"656 810 LINE SMOOTH",
"657 822 OFFCURVE",
"667 828 OFFCURVE",
"676 828 CURVE SMOOTH",
"684 828 OFFCURVE",
"692 822 OFFCURVE",
"693 810 CURVE SMOOTH",
"706 621 LINE",
"780 70 LINE SMOOTH",
"787 21 OFFCURVE",
"819 0 OFFCURVE",
"856 0 CURVE SMOOTH",
"1125 0 LINE SMOOTH"
);
}
);
width = 1349;
}
);
note = W;
unicode = 0057;
},
{
glyphname = X;
lastChange = "2017-07-29 14:52:11 +0000";
layers = (
{
layerId = "39211C88-9C10-4AFB-8159-811865CCF3A1";
paths = (
{
closed = 1;
nodes = (
"37 25 OFFCURVE",
"64 0 OFFCURVE",
"105 0 CURVE SMOOTH",
"263 0 LINE SMOOTH",
"300 0 OFFCURVE",
"331 29 OFFCURVE",
"343 72 CURVE SMOOTH",
"458 442 LINE",
"462 453 OFFCURVE",
"468 459 OFFCURVE",
"477 459 CURVE SMOOTH",
"485 459 OFFCURVE",
"491 453 OFFCURVE",
"495 442 CURVE SMOOTH",
"621 70 LINE",
"635 23 OFFCURVE",
"660 0 OFFCURVE",
"697 0 CURVE SMOOTH",
"857 0 LINE SMOOTH",
"898 0 OFFCURVE",
"923 24 OFFCURVE",
"902 80 CURVE SMOOTH",
"664 697 LINE",
"651 727 OFFCURVE",
"651 758 OFFCURVE",
"664 789 CURVE SMOOTH",
"902 1402 LINE SMOOTH",
"923 1458 OFFCURVE",
"898 1482 OFFCURVE",
"857 1482 CURVE SMOOTH",
"697 1482 LINE SMOOTH",
"660 1482 OFFCURVE",
"635 1459 OFFCURVE",
"621 1412 CURVE",
"495 1042 LINE SMOOTH",
"491 1031 OFFCURVE",
"485 1025 OFFCURVE",
"477 1025 CURVE SMOOTH",
"468 1025 OFFCURVE",
"462 1031 OFFCURVE",
"458 1042 CURVE",
"343 1412 LINE SMOOTH",
"327 1459 OFFCURVE",
"301 1482 OFFCURVE",
"265 1482 CURVE SMOOTH",
"105 1482 LINE SMOOTH",
"64 1482 OFFCURVE",
"37 1457 OFFCURVE",
"58 1402 CURVE SMOOTH",
"302 789 LINE SMOOTH",
"314 758 OFFCURVE",
"314 727 OFFCURVE",
"302 697 CURVE SMOOTH",
"58 80 LINE SMOOTH"
);
}
);
width = 960;
}
);
note = X;
unicode = 0058;
},
{
glyphname = Y;
lastChange = "2017-07-29 14:52:11 +0000";
layers = (
{
layerId = "39211C88-9C10-4AFB-8159-811865CCF3A1";
paths = (
{
closed = 1;
nodes = (
"608 0 OFFCURVE",
"633 24 OFFCURVE",
"633 55 CURVE SMOOTH",
"633 549 LINE SMOOTH",
"633 565 OFFCURVE",
"637 590 OFFCURVE",
"643 615 CURVE SMOOTH",
"649 639 OFFCURVE",
"655 664 OFFCURVE",
"662 680 CURVE",
"931 1402 LINE SMOOTH",
"951 1458 OFFCURVE",
"927 1482 OFFCURVE",
"886 1482 CURVE SMOOTH",
"725 1482 LINE SMOOTH",
"689 1482 OFFCURVE",
"664 1459 OFFCURVE",
"649 1412 CURVE SMOOTH",
"516 997 LINE",
"512 986 OFFCURVE",
"505 980 OFFCURVE",
"496 980 CURVE SMOOTH",
"486 980 OFFCURVE",
"479 986 OFFCURVE",
"475 997 CURVE",
"341 1412 LINE SMOOTH",
"325 1459 OFFCURVE",
"299 1482 OFFCURVE",
"263 1482 CURVE SMOOTH",
"105 1482 LINE SMOOTH",
"64 1482 OFFCURVE",
"37 1457 OFFCURVE",
"58 1402 CURVE SMOOTH",
"329 680 LINE",
"334 664 OFFCURVE",
"342 639 OFFCURVE",
"347 615 CURVE SMOOTH",
"352 590 OFFCURVE",
"356 565 OFFCURVE",
"356 549 CURVE SMOOTH",
"356 55 LINE SMOOTH",
"356 24 OFFCURVE",
"382 0 OFFCURVE",
"413 0 CURVE SMOOTH",
"577 0 LINE SMOOTH"
);
}
);
width = 989;
}
);
note = Y;
unicode = 0059;
},
{
glyphname = Z;
lastChange = "2017-07-29 14:52:11 +0000";
layers = (
{
layerId = "39211C88-9C10-4AFB-8159-811865CCF3A1";
paths = (
{
closed = 1;
nodes = (
"31 48 OFFCURVE",
"61 0 OFFCURVE",
"144 0 CURVE SMOOTH",
"785 0 LINE SMOOTH",
"816 0 OFFCURVE",
"843 24 OFFCURVE",
"843 55 CURVE SMOOTH",
"843 220 LINE SMOOTH",
"843 251 OFFCURVE",
"816 277 OFFCURVE",
"785 277 CURVE SMOOTH",
"475 277 LINE SMOOTH",
"438 277 OFFCURVE",
"415 308 OFFCURVE",
"434 349 CURVE",
"845 1358 LINE SMOOTH",
"876 1433 OFFCURVE",
"846 1482 OFFCURVE",
"763 1482 CURVE SMOOTH",
"130 1482 LINE SMOOTH",
"99 1482 OFFCURVE",
"74 1457 OFFCURVE",
"74 1426 CURVE SMOOTH",
"74 1262 LINE SMOOTH",
"74 1231 OFFCURVE",
"99 1204 OFFCURVE",
"130 1204 CURVE SMOOTH",
"436 1204 LINE SMOOTH",
"473 1204 OFFCURVE",
"496 1173 OFFCURVE",
"477 1132 CURVE",
"62 123 LINE SMOOTH"
);
}
